<svg width="1155" height="300" viewBox="0 0 1155 300" fill="none" xmlns="http://www.w3.org/2000/svg">
    <path d="M354.827 236.36C354.827 243.8 353.507 249.32 350.867 252.92C348.227 256.52 344.027 260 338.267 263.36C334.907 265.28 330.707 267.2 325.667 269.12C320.627 270.8 315.107 272.24 309.107 273.44C303.107 274.88 296.747 275.96 290.027 276.68C283.547 277.4 277.067 277.76 270.587 277.76C253.307 277.76 237.107 275.48 221.987 270.92C206.867 266.12 193.667 259.04 182.387 249.68C171.347 240.08 162.587 228.2 156.107 214.04C149.627 199.88 146.387 183.44 146.387 164.72C146.387 145.04 149.867 127.88 156.827 113.24C164.027 98.6 173.387 86.48 184.907 76.88C196.667 67.04 209.987 59.72 224.867 54.92C239.987 50.12 255.467 47.72 271.307 47.72C294.107 47.72 312.107 51.44 325.307 58.88C338.747 66.08 345.467 75.56 345.467 87.32C345.467 93.56 343.907 98.96 340.787 103.52C337.667 108.08 334.067 111.68 329.987 114.32C323.987 110.72 316.427 107.24 307.307 103.88C298.427 100.28 288.347 98.48 277.067 98.48C256.907 98.48 240.827 104.24 228.827 115.76C217.067 127.28 211.187 143.24 211.187 163.64C211.187 174.68 212.747 184.28 215.867 192.44C219.227 200.36 223.667 206.96 229.187 212.24C234.707 217.28 241.067 221.12 248.267 223.76C255.467 226.16 263.147 227.36 271.307 227.36C276.587 227.36 281.267 226.88 285.347 225.92C289.427 224.96 292.547 223.88 294.707 222.68V188.84H256.187C254.747 186.2 253.307 182.72 251.867 178.4C250.667 174.08 250.067 169.52 250.067 164.72C250.067 156.08 251.987 149.84 255.827 146C259.907 142.16 265.067 140.24 271.307 140.24H332.147C339.347 140.24 344.867 142.28 348.707 146.36C352.787 150.2 354.827 155.72 354.827 162.92V236.36Z" fill="#4F46E5"/>
    <path d="M572.65 184.52C572.65 199.4 570.37 212.72 565.81 224.48C561.25 236 554.77 245.72 546.37 253.64C538.21 261.56 528.37 267.56 516.85 271.64C505.33 275.72 492.49 277.76 478.33 277.76C464.17 277.76 451.33 275.6 439.81 271.28C428.29 266.96 418.33 260.84 409.93 252.92C401.77 244.76 395.41 234.92 390.85 223.4C386.29 211.88 384.01 198.92 384.01 184.52C384.01 170.36 386.29 157.52 390.85 146C395.41 134.48 401.77 124.76 409.93 116.84C418.33 108.68 428.29 102.44 439.81 98.12C451.33 93.8 464.17 91.64 478.33 91.64C492.49 91.64 505.33 93.92 516.85 98.48C528.37 102.8 538.21 109.04 546.37 117.2C554.77 125.12 561.25 134.84 565.81 146.36C570.37 157.88 572.65 170.6 572.65 184.52ZM446.65 184.52C446.65 199.16 449.41 210.44 454.93 218.36C460.69 226.04 468.61 229.88 478.69 229.88C488.77 229.88 496.45 225.92 501.73 218C507.25 210.08 510.01 198.92 510.01 184.52C510.01 170.12 507.25 159.08 501.73 151.4C496.21 143.48 488.41 139.52 478.33 139.52C468.25 139.52 460.45 143.48 454.93 151.4C449.41 159.08 446.65 170.12 446.65 184.52Z" fill="#7ED957"/>
    <path d="M783.587 184.52C783.587 199.4 781.307 212.72 776.747 224.48C772.187 236 765.707 245.72 757.307 253.64C749.147 261.56 739.307 267.56 727.787 271.64C716.267 275.72 703.427 277.76 689.267 277.76C675.107 277.76 662.267 275.6 650.747 271.28C639.227 266.96 629.267 260.84 620.867 252.92C612.707 244.76 606.347 234.92 601.787 223.4C597.227 211.88 594.947 198.92 594.947 184.52C594.947 170.36 597.227 157.52 601.787 146C606.347 134.48 612.707 124.76 620.867 116.84C629.267 108.68 639.227 102.44 650.747 98.12C662.267 93.8 675.107 91.64 689.267 91.64C703.427 91.64 716.267 93.92 727.787 98.48C739.307 102.8 749.147 109.04 757.307 117.2C765.707 125.12 772.187 134.84 776.747 146.36C781.307 157.88 783.587 170.6 783.587 184.52ZM657.587 184.52C657.587 199.16 660.347 210.44 665.867 218.36C671.627 226.04 679.547 229.88 689.627 229.88C699.707 229.88 707.387 225.92 712.667 218C718.187 210.08 720.947 198.92 720.947 184.52C720.947 170.12 718.187 159.08 712.667 151.4C707.147 143.48 699.347 139.52 689.267 139.52C679.187 139.52 671.387 143.48 665.867 151.4C660.347 159.08 657.587 170.12 657.587 184.52Z" fill="#FFBD59"/>
    <path d="M805.885 184.52C805.885 168.68 808.285 155 813.085 143.48C817.885 131.72 824.485 122 832.885 114.32C841.525 106.64 851.485 101 862.765 97.4C874.285 93.56 886.645 91.64 899.845 91.64C904.645 91.64 909.325 92.12 913.885 93.08C918.445 93.8 922.165 94.76 925.045 95.96V37.64C927.445 36.92 931.285 36.2 936.565 35.48C941.845 34.52 947.245 34.04 952.765 34.04C958.045 34.04 962.725 34.4 966.805 35.12C971.125 35.84 974.725 37.28 977.605 39.44C980.485 41.6 982.645 44.6 984.085 48.44C985.525 52.04 986.245 56.84 986.245 62.84V233.48C986.245 244.76 980.965 253.76 970.405 260.48C963.445 265.04 954.445 269 943.405 272.36C932.365 275.96 919.645 277.76 905.245 277.76C889.645 277.76 875.605 275.6 863.125 271.28C850.885 266.96 840.445 260.72 831.805 252.56C823.405 244.4 816.925 234.68 812.365 223.4C808.045 211.88 805.885 198.92 805.885 184.52ZM908.125 139.52C895.165 139.52 885.205 143.24 878.245 150.68C871.285 158.12 867.805 169.4 867.805 184.52C867.805 199.4 871.045 210.68 877.525 218.36C884.005 225.8 893.365 229.52 905.605 229.52C909.925 229.52 913.765 228.92 917.125 227.72C920.725 226.28 923.485 224.72 925.405 223.04V143.84C920.605 140.96 914.845 139.52 908.125 139.52Z" fill="#FF5757"/>
    <path d="M388.245 45.046C385.422 45.046 383.258 45.9077 381.755 47.631C380.252 49.3543 379.5 51.7927 379.5 54.946C379.5 58.136 380.325 60.5927 381.975 62.316C383.662 64.0393 385.917 64.901 388.74 64.901C390.243 64.901 391.508 64.6993 392.535 64.296C393.598 63.8927 394.607 63.4343 395.56 62.921C396.183 63.4343 396.66 64.0577 396.99 64.791C397.357 65.4877 397.54 66.3127 397.54 67.266C397.54 68.7693 396.697 70.0527 395.01 71.116C393.36 72.1427 390.83 72.656 387.42 72.656C384.963 72.656 382.653 72.3077 380.49 71.611C378.327 70.9143 376.438 69.851 374.825 68.421C373.212 66.9543 371.928 65.121 370.975 62.921C370.058 60.6843 369.6 58.026 369.6 54.946C369.6 52.086 370.04 49.5743 370.92 47.411C371.837 45.211 373.065 43.3593 374.605 41.856C376.182 40.3527 378.015 39.216 380.105 38.446C382.195 37.676 384.432 37.291 386.815 37.291C390.188 37.291 392.792 37.841 394.625 38.941C396.495 40.041 397.43 41.4527 397.43 43.176C397.43 44.1293 397.192 44.9543 396.715 45.651C396.238 46.3477 395.688 46.8977 395.065 47.301C394.112 46.6777 393.085 46.146 391.985 45.706C390.922 45.266 389.675 45.046 388.245 45.046ZM428.923 58.301C428.923 60.5743 428.574 62.6093 427.878 64.406C427.181 66.166 426.191 67.651 424.908 68.861C423.661 70.071 422.158 70.9877 420.398 71.611C418.638 72.2343 416.676 72.546 414.513 72.546C412.349 72.546 410.388 72.216 408.628 71.556C406.868 70.896 405.346 69.961 404.063 68.751C402.816 67.5043 401.844 66.001 401.148 64.241C400.451 62.481 400.103 60.501 400.103 58.301C400.103 56.1377 400.451 54.176 401.148 52.416C401.844 50.656 402.816 49.171 404.063 47.961C405.346 46.7143 406.868 45.761 408.628 45.101C410.388 44.441 412.349 44.111 414.513 44.111C416.676 44.111 418.638 44.4593 420.398 45.156C422.158 45.816 423.661 46.7693 424.908 48.016C426.191 49.226 427.181 50.711 427.878 52.471C428.574 54.231 428.923 56.1743 428.923 58.301ZM409.673 58.301C409.673 60.5377 410.094 62.261 410.938 63.471C411.818 64.6443 413.028 65.231 414.568 65.231C416.108 65.231 417.281 64.626 418.088 63.416C418.931 62.206 419.353 60.501 419.353 58.301C419.353 56.101 418.931 54.4143 418.088 53.241C417.244 52.031 416.053 51.426 414.513 51.426C412.973 51.426 411.781 52.031 410.938 53.241C410.094 54.4143 409.673 56.101 409.673 58.301ZM442.834 71.611C442.468 71.721 441.881 71.831 441.074 71.941C440.304 72.051 439.498 72.106 438.654 72.106C437.848 72.106 437.114 72.051 436.454 71.941C435.831 71.831 435.299 71.611 434.859 71.281C434.419 70.951 434.071 70.511 433.814 69.961C433.594 69.3743 433.484 68.6227 433.484 67.706V51.206C433.484 50.3627 433.631 49.6477 433.924 49.061C434.254 48.4377 434.713 47.8877 435.299 47.411C435.886 46.9343 436.601 46.5127 437.444 46.146C438.324 45.7427 439.259 45.3943 440.249 45.101C441.239 44.8077 442.266 44.5877 443.329 44.441C444.393 44.2577 445.456 44.166 446.519 44.166C448.279 44.166 449.673 44.5143 450.699 45.211C451.726 45.871 452.239 46.971 452.239 48.511C452.239 49.0243 452.166 49.5377 452.019 50.051C451.873 50.5277 451.689 50.9677 451.469 51.371C450.699 51.371 449.911 51.4077 449.104 51.481C448.298 51.5543 447.509 51.6643 446.739 51.811C445.969 51.9577 445.236 52.1227 444.539 52.306C443.879 52.4527 443.311 52.636 442.834 52.856V71.611ZM464.909 71.611C464.543 71.721 463.956 71.831 463.149 71.941C462.379 72.051 461.573 72.106 460.729 72.106C459.923 72.106 459.189 72.051 458.529 71.941C457.906 71.831 457.374 71.611 456.934 71.281C456.494 70.951 456.146 70.511 455.889 69.961C455.669 69.3743 455.559 68.6227 455.559 67.706V51.206C455.559 50.3627 455.706 49.6477 455.999 49.061C456.329 48.4377 456.788 47.8877 457.374 47.411C457.961 46.9343 458.676 46.5127 459.519 46.146C460.399 45.7427 461.334 45.3943 462.324 45.101C463.314 44.8077 464.341 44.5877 465.404 44.441C466.468 44.2577 467.531 44.166 468.594 44.166C470.354 44.166 471.748 44.5143 472.774 45.211C473.801 45.871 474.314 46.971 474.314 48.511C474.314 49.0243 474.241 49.5377 474.094 50.051C473.948 50.5277 473.764 50.9677 473.544 51.371C472.774 51.371 471.986 51.4077 471.179 51.481C470.373 51.5543 469.584 51.6643 468.814 51.811C468.044 51.9577 467.311 52.1227 466.614 52.306C465.954 52.4527 465.386 52.636 464.909 52.856V71.611ZM491.286 72.546C489.123 72.546 487.106 72.2527 485.236 71.666C483.403 71.0427 481.79 70.126 480.396 68.916C479.04 67.706 477.958 66.1843 477.151 64.351C476.381 62.5177 475.996 60.3727 475.996 57.916C475.996 55.496 476.381 53.4243 477.151 51.701C477.958 49.941 479.003 48.511 480.286 47.411C481.57 46.2743 483.036 45.4493 484.686 44.936C486.336 44.386 488.023 44.111 489.746 44.111C491.69 44.111 493.45 44.4043 495.026 44.991C496.64 45.5777 498.015 46.3843 499.151 47.411C500.325 48.4377 501.223 49.666 501.846 51.096C502.506 52.526 502.836 54.0843 502.836 55.771C502.836 57.0177 502.488 57.971 501.791 58.631C501.095 59.291 500.123 59.7127 498.876 59.896L485.291 61.931C485.695 63.141 486.52 64.0577 487.766 64.681C489.013 65.2677 490.443 65.561 492.056 65.561C493.56 65.561 494.971 65.3777 496.291 65.011C497.648 64.6077 498.748 64.1493 499.591 63.636C500.178 64.0027 500.673 64.516 501.076 65.176C501.48 65.836 501.681 66.5327 501.681 67.266C501.681 68.916 500.911 70.1443 499.371 70.951C498.198 71.5743 496.878 71.996 495.411 72.216C493.945 72.436 492.57 72.546 491.286 72.546ZM489.746 50.931C488.866 50.931 488.096 51.0777 487.436 51.371C486.813 51.6643 486.3 52.0493 485.896 52.526C485.493 52.966 485.181 53.4793 484.961 54.066C484.778 54.616 484.668 55.1843 484.631 55.771L494.036 54.231C493.926 53.4977 493.523 52.7643 492.826 52.031C492.13 51.2977 491.103 50.931 489.746 50.931ZM516.687 62.481C516.687 63.4343 516.98 64.1127 517.567 64.516C518.19 64.9193 519.052 65.121 520.152 65.121C520.702 65.121 521.27 65.0843 521.857 65.011C522.443 64.901 522.957 64.7727 523.397 64.626C523.727 65.0293 524.002 65.4877 524.222 66.001C524.478 66.4777 524.607 67.0643 524.607 67.761C524.607 69.1543 524.075 70.291 523.012 71.171C521.985 72.051 520.152 72.491 517.512 72.491C514.285 72.491 511.792 71.7577 510.032 70.291C508.308 68.8243 507.447 66.441 507.447 63.141V39.601C507.85 39.491 508.418 39.381 509.152 39.271C509.922 39.1243 510.728 39.051 511.572 39.051C513.185 39.051 514.432 39.3443 515.312 39.931C516.228 40.481 516.687 41.6727 516.687 43.506V47.026H523.892C524.112 47.4293 524.313 47.9427 524.497 48.566C524.717 49.1527 524.827 49.8127 524.827 50.546C524.827 51.8293 524.533 52.7643 523.947 53.351C523.397 53.901 522.645 54.176 521.692 54.176H516.687V62.481ZM556.701 58.301C556.701 60.5743 556.353 62.6093 555.656 64.406C554.959 66.166 553.969 67.651 552.686 68.861C551.439 70.071 549.936 70.9877 548.176 71.611C546.416 72.2343 544.454 72.546 542.291 72.546C540.128 72.546 538.166 72.216 536.406 71.556C534.646 70.896 533.124 69.961 531.841 68.751C530.594 67.5043 529.623 66.001 528.926 64.241C528.229 62.481 527.881 60.501 527.881 58.301C527.881 56.1377 528.229 54.176 528.926 52.416C529.623 50.656 530.594 49.171 531.841 47.961C533.124 46.7143 534.646 45.761 536.406 45.101C538.166 44.441 540.128 44.111 542.291 44.111C544.454 44.111 546.416 44.4593 548.176 45.156C549.936 45.816 551.439 46.7693 552.686 48.016C553.969 49.226 554.959 50.711 555.656 52.471C556.353 54.231 556.701 56.1743 556.701 58.301ZM537.451 58.301C537.451 60.5377 537.873 62.261 538.716 63.471C539.596 64.6443 540.806 65.231 542.346 65.231C543.886 65.231 545.059 64.626 545.866 63.416C546.709 62.206 547.131 60.501 547.131 58.301C547.131 56.101 546.709 54.4143 545.866 53.241C545.023 52.031 543.831 51.426 542.291 51.426C540.751 51.426 539.559 52.031 538.716 53.241C537.873 54.4143 537.451 56.101 537.451 58.301ZM570.613 71.611C570.246 71.721 569.659 71.831 568.853 71.941C568.083 72.051 567.276 72.106 566.433 72.106C565.626 72.106 564.893 72.051 564.233 71.941C563.609 71.831 563.078 71.611 562.638 71.281C562.198 70.951 561.849 70.511 561.593 69.961C561.373 69.3743 561.263 68.6227 561.263 67.706V51.206C561.263 50.3627 561.409 49.6477 561.703 49.061C562.033 48.4377 562.491 47.8877 563.078 47.411C563.664 46.9343 564.379 46.5127 565.223 46.146C566.103 45.7427 567.038 45.3943 568.028 45.101C569.018 44.8077 570.044 44.5877 571.108 44.441C572.171 44.2577 573.234 44.166 574.298 44.166C576.058 44.166 577.451 44.5143 578.478 45.211C579.504 45.871 580.018 46.971 580.018 48.511C580.018 49.0243 579.944 49.5377 579.798 50.051C579.651 50.5277 579.468 50.9677 579.248 51.371C578.478 51.371 577.689 51.4077 576.883 51.481C576.076 51.5543 575.288 51.6643 574.518 51.811C573.748 51.9577 573.014 52.1227 572.318 52.306C571.658 52.4527 571.089 52.636 570.613 52.856V71.611ZM594.509 65.726C595.133 65.726 595.811 65.671 596.544 65.561C597.314 65.4143 597.883 65.231 598.249 65.011V60.611L594.289 60.941C593.263 61.0143 592.419 61.2343 591.759 61.601C591.099 61.9677 590.769 62.5177 590.769 63.251C590.769 63.9843 591.044 64.5893 591.594 65.066C592.181 65.506 593.153 65.726 594.509 65.726ZM594.069 44.111C596.049 44.111 597.846 44.3127 599.459 44.716C601.109 45.1193 602.503 45.7427 603.639 46.586C604.813 47.3927 605.711 48.4377 606.334 49.721C606.958 50.9677 607.269 52.4527 607.269 54.176V66.496C607.269 67.4493 606.994 68.2377 606.444 68.861C605.931 69.4477 605.308 69.961 604.574 70.401C602.191 71.831 598.836 72.546 594.509 72.546C592.566 72.546 590.806 72.3627 589.229 71.996C587.689 71.6293 586.351 71.0793 585.214 70.346C584.114 69.6127 583.253 68.6777 582.629 67.541C582.043 66.4043 581.749 65.0843 581.749 63.581C581.749 61.051 582.501 59.1077 584.004 57.751C585.508 56.3943 587.836 55.551 590.989 55.221L598.194 54.451V54.066C598.194 53.0027 597.718 52.251 596.764 51.811C595.848 51.3343 594.509 51.096 592.749 51.096C591.356 51.096 589.999 51.2427 588.679 51.536C587.359 51.8293 586.168 52.196 585.104 52.636C584.628 52.306 584.224 51.811 583.894 51.151C583.564 50.4543 583.399 49.7393 583.399 49.006C583.399 48.0527 583.619 47.301 584.059 46.751C584.536 46.1643 585.251 45.6693 586.204 45.266C587.268 44.8627 588.514 44.5693 589.944 44.386C591.411 44.2027 592.786 44.111 594.069 44.111ZM622.842 58.301C622.842 55.881 623.209 53.791 623.942 52.031C624.675 50.2343 625.684 48.7493 626.967 47.576C628.287 46.4027 629.809 45.541 631.532 44.991C633.292 44.4043 635.18 44.111 637.197 44.111C637.93 44.111 638.645 44.1843 639.342 44.331C640.039 44.441 640.607 44.5877 641.047 44.771V35.861C641.414 35.751 642 35.641 642.807 35.531C643.614 35.3843 644.439 35.311 645.282 35.311C646.089 35.311 646.804 35.366 647.427 35.476C648.087 35.586 648.637 35.806 649.077 36.136C649.517 36.466 649.847 36.9243 650.067 37.511C650.287 38.061 650.397 38.7943 650.397 39.711V65.781C650.397 67.5043 649.59 68.8793 647.977 69.906C646.914 70.6027 645.539 71.2077 643.852 71.721C642.165 72.271 640.222 72.546 638.022 72.546C635.639 72.546 633.494 72.216 631.587 71.556C629.717 70.896 628.122 69.9427 626.802 68.696C625.519 67.4493 624.529 65.9643 623.832 64.241C623.172 62.481 622.842 60.501 622.842 58.301ZM638.462 51.426C636.482 51.426 634.96 51.9943 633.897 53.131C632.834 54.2677 632.302 55.991 632.302 58.301C632.302 60.5743 632.797 62.2977 633.787 63.471C634.777 64.6077 636.207 65.176 638.077 65.176C638.737 65.176 639.324 65.0843 639.837 64.901C640.387 64.681 640.809 64.4427 641.102 64.186V52.086C640.369 51.646 639.489 51.426 638.462 51.426ZM670.359 72.546C668.195 72.546 666.179 72.2527 664.309 71.666C662.475 71.0427 660.862 70.126 659.469 68.916C658.112 67.706 657.03 66.1843 656.224 64.351C655.454 62.5177 655.069 60.3727 655.069 57.916C655.069 55.496 655.454 53.4243 656.224 51.701C657.03 49.941 658.075 48.511 659.359 47.411C660.642 46.2743 662.109 45.4493 663.759 44.936C665.409 44.386 667.095 44.111 668.819 44.111C670.762 44.111 672.522 44.4043 674.099 44.991C675.712 45.5777 677.087 46.3843 678.224 47.411C679.397 48.4377 680.295 49.666 680.919 51.096C681.579 52.526 681.909 54.0843 681.909 55.771C681.909 57.0177 681.56 57.971 680.864 58.631C680.167 59.291 679.195 59.7127 677.949 59.896L664.364 61.931C664.767 63.141 665.592 64.0577 666.839 64.681C668.085 65.2677 669.515 65.561 671.129 65.561C672.632 65.561 674.044 65.3777 675.364 65.011C676.72 64.6077 677.82 64.1493 678.664 63.636C679.25 64.0027 679.745 64.516 680.149 65.176C680.552 65.836 680.754 66.5327 680.754 67.266C680.754 68.916 679.984 70.1443 678.444 70.951C677.27 71.5743 675.95 71.996 674.484 72.216C673.017 72.436 671.642 72.546 670.359 72.546ZM668.819 50.931C667.939 50.931 667.169 51.0777 666.509 51.371C665.885 51.6643 665.372 52.0493 664.969 52.526C664.565 52.966 664.254 53.4793 664.034 54.066C663.85 54.616 663.74 55.1843 663.704 55.771L673.109 54.231C672.999 53.4977 672.595 52.7643 671.899 52.031C671.202 51.2977 670.175 50.931 668.819 50.931ZM707.595 58.411C705.981 57.861 704.515 57.311 703.195 56.761C701.875 56.1743 700.738 55.4777 699.785 54.671C698.831 53.8643 698.08 52.911 697.53 51.811C697.016 50.6743 696.76 49.2993 696.76 47.686C696.76 44.5693 697.951 42.076 700.335 40.206C702.755 38.336 706.128 37.401 710.455 37.401C712.031 37.401 713.498 37.511 714.855 37.731C716.211 37.951 717.366 38.2993 718.32 38.776C719.31 39.216 720.08 39.8027 720.63 40.536C721.18 41.2327 721.455 42.0577 721.455 43.011C721.455 43.9643 721.235 44.7893 720.795 45.486C720.355 46.146 719.823 46.7143 719.2 47.191C718.393 46.6777 717.311 46.2377 715.955 45.871C714.598 45.4677 713.113 45.266 711.5 45.266C709.85 45.266 708.64 45.5043 707.87 45.981C707.1 46.421 706.715 46.9893 706.715 47.686C706.715 48.236 706.953 48.6943 707.43 49.061C707.906 49.391 708.621 49.7027 709.575 49.996L712.49 50.931C715.936 52.031 718.576 53.4427 720.41 55.166C722.28 56.8527 723.215 59.1627 723.215 62.096C723.215 65.2127 721.986 67.7427 719.53 69.686C717.073 71.5927 713.461 72.546 708.695 72.546C707.008 72.546 705.431 72.3993 703.965 72.106C702.535 71.8493 701.27 71.4643 700.17 70.951C699.106 70.401 698.263 69.741 697.64 68.971C697.053 68.1643 696.76 67.2477 696.76 66.221C696.76 65.1577 697.071 64.2593 697.695 63.526C698.318 62.756 698.996 62.1693 699.73 61.766C700.756 62.5727 702.003 63.2693 703.47 63.856C704.973 64.4427 706.605 64.736 708.365 64.736C710.161 64.736 711.426 64.461 712.16 63.911C712.893 63.361 713.26 62.7193 713.26 61.986C713.26 61.2527 712.966 60.7027 712.38 60.336C711.793 59.9327 710.968 59.5477 709.905 59.181L707.595 58.411ZM741.955 72.546C739.792 72.546 737.775 72.2527 735.905 71.666C734.072 71.0427 732.459 70.126 731.065 68.916C729.709 67.706 728.627 66.1843 727.82 64.351C727.05 62.5177 726.665 60.3727 726.665 57.916C726.665 55.496 727.05 53.4243 727.82 51.701C728.627 49.941 729.672 48.511 730.955 47.411C732.239 46.2743 733.705 45.4493 735.355 44.936C737.005 44.386 738.692 44.111 740.415 44.111C742.359 44.111 744.119 44.4043 745.695 44.991C747.309 45.5777 748.684 46.3843 749.82 47.411C750.994 48.4377 751.892 49.666 752.515 51.096C753.175 52.526 753.505 54.0843 753.505 55.771C753.505 57.0177 753.157 57.971 752.46 58.631C751.764 59.291 750.792 59.7127 749.545 59.896L735.96 61.931C736.364 63.141 737.189 64.0577 738.435 64.681C739.682 65.2677 741.112 65.561 742.725 65.561C744.229 65.561 745.64 65.3777 746.96 65.011C748.317 64.6077 749.417 64.1493 750.26 63.636C750.847 64.0027 751.342 64.516 751.745 65.176C752.149 65.836 752.35 66.5327 752.35 67.266C752.35 68.916 751.58 70.1443 750.04 70.951C748.867 71.5743 747.547 71.996 746.08 72.216C744.614 72.436 743.239 72.546 741.955 72.546ZM740.415 50.931C739.535 50.931 738.765 51.0777 738.105 51.371C737.482 51.6643 736.969 52.0493 736.565 52.526C736.162 52.966 735.85 53.4793 735.63 54.066C735.447 54.616 735.337 55.1843 735.3 55.771L744.705 54.231C744.595 53.4977 744.192 52.7643 743.495 52.031C742.799 51.2977 741.772 50.931 740.415 50.931ZM771.041 44.111C773.131 44.111 775.019 44.386 776.706 44.936C778.429 45.4493 779.877 46.1277 781.051 46.971C781.784 47.4843 782.352 48.0527 782.756 48.676C783.196 49.2993 783.416 50.106 783.416 51.096V70.346C783.416 72.2893 783.049 73.9577 782.316 75.351C781.582 76.781 780.574 77.9543 779.291 78.871C778.044 79.8243 776.559 80.521 774.836 80.961C773.149 81.401 771.334 81.621 769.391 81.621C766.054 81.621 763.432 81.1627 761.526 80.246C759.619 79.366 758.666 77.9177 758.666 75.901C758.666 75.0577 758.831 74.306 759.161 73.646C759.527 73.0227 759.931 72.546 760.371 72.216C761.434 72.8027 762.626 73.2977 763.946 73.701C765.302 74.1043 766.696 74.306 768.126 74.306C770.106 74.306 771.682 73.976 772.856 73.316C774.029 72.656 774.616 71.5927 774.616 70.126V69.246C773.112 69.906 771.279 70.236 769.116 70.236C767.466 70.236 765.889 69.9977 764.386 69.521C762.919 69.0077 761.617 68.2377 760.481 67.211C759.381 66.1477 758.482 64.791 757.786 63.141C757.126 61.491 756.796 59.5293 756.796 57.256C756.796 55.0193 757.144 53.076 757.841 51.426C758.574 49.776 759.564 48.4193 760.811 47.356C762.094 46.256 763.597 45.4493 765.321 44.936C767.081 44.386 768.987 44.111 771.041 44.111ZM774.451 52.086C774.194 51.9393 773.809 51.7927 773.296 51.646C772.819 51.4993 772.214 51.426 771.481 51.426C769.684 51.426 768.327 51.9393 767.411 52.966C766.531 53.956 766.091 55.386 766.091 57.256C766.091 59.3827 766.531 60.9227 767.411 61.876C768.327 62.7927 769.482 63.251 770.876 63.251C772.379 63.251 773.571 62.9027 774.451 62.206V52.086ZM789.212 45.321C789.578 45.211 790.147 45.101 790.917 44.991C791.723 44.881 792.548 44.826 793.392 44.826C794.198 44.826 794.913 44.881 795.537 44.991C796.197 45.101 796.747 45.321 797.187 45.651C797.627 45.981 797.957 46.4393 798.177 47.026C798.433 47.576 798.562 48.3093 798.562 49.226V61.051C798.562 62.5543 798.928 63.636 799.662 64.296C800.395 64.9193 801.458 65.231 802.852 65.231C803.695 65.231 804.373 65.1577 804.887 65.011C805.437 64.8643 805.858 64.7177 806.152 64.571V45.321C806.518 45.211 807.087 45.101 807.857 44.991C808.663 44.881 809.488 44.826 810.332 44.826C811.138 44.826 811.853 44.881 812.477 44.991C813.137 45.101 813.687 45.321 814.127 45.651C814.567 45.981 814.897 46.4393 815.117 47.026C815.373 47.576 815.502 48.3093 815.502 49.226V65.946C815.502 67.7793 814.732 69.1543 813.192 70.071C811.908 70.8777 810.368 71.4827 808.572 71.886C806.812 72.326 804.887 72.546 802.797 72.546C800.817 72.546 798.983 72.326 797.297 71.886C795.647 71.446 794.217 70.7677 793.007 69.851C791.797 68.9343 790.862 67.761 790.202 66.331C789.542 64.8643 789.212 63.1043 789.212 61.051V45.321ZM830.574 71.611C830.207 71.721 829.62 71.831 828.814 71.941C828.044 72.051 827.237 72.106 826.394 72.106C825.587 72.106 824.854 72.051 824.194 71.941C823.57 71.831 823.039 71.611 822.599 71.281C822.159 70.951 821.81 70.511 821.554 69.961C821.334 69.3743 821.224 68.6227 821.224 67.706V51.206C821.224 50.3627 821.37 49.6477 821.664 49.061C821.994 48.4377 822.452 47.8877 823.039 47.411C823.625 46.9343 824.34 46.5127 825.184 46.146C826.064 45.7427 826.999 45.3943 827.989 45.101C828.979 44.8077 830.005 44.5877 831.069 44.441C832.132 44.2577 833.195 44.166 834.259 44.166C836.019 44.166 837.412 44.5143 838.439 45.211C839.465 45.871 839.979 46.971 839.979 48.511C839.979 49.0243 839.905 49.5377 839.759 50.051C839.612 50.5277 839.429 50.9677 839.209 51.371C838.439 51.371 837.65 51.4077 836.844 51.481C836.037 51.5543 835.249 51.6643 834.479 51.811C833.709 51.9577 832.975 52.1227 832.279 52.306C831.619 52.4527 831.05 52.636 830.574 52.856V71.611ZM870.48 58.301C870.48 60.5743 870.132 62.6093 869.435 64.406C868.739 66.166 867.749 67.651 866.465 68.861C865.219 70.071 863.715 70.9877 861.955 71.611C860.195 72.2343 858.234 72.546 856.07 72.546C853.907 72.546 851.945 72.216 850.185 71.556C848.425 70.896 846.904 69.961 845.62 68.751C844.374 67.5043 843.402 66.001 842.705 64.241C842.009 62.481 841.66 60.501 841.66 58.301C841.66 56.1377 842.009 54.176 842.705 52.416C843.402 50.656 844.374 49.171 845.62 47.961C846.904 46.7143 848.425 45.761 850.185 45.101C851.945 44.441 853.907 44.111 856.07 44.111C858.234 44.111 860.195 44.4593 861.955 45.156C863.715 45.816 865.219 46.7693 866.465 48.016C867.749 49.226 868.739 50.711 869.435 52.471C870.132 54.231 870.48 56.1743 870.48 58.301ZM851.23 58.301C851.23 60.5377 851.652 62.261 852.495 63.471C853.375 64.6443 854.585 65.231 856.125 65.231C857.665 65.231 858.839 64.626 859.645 63.416C860.489 62.206 860.91 60.501 860.91 58.301C860.91 56.101 860.489 54.4143 859.645 53.241C858.802 52.031 857.61 51.426 856.07 51.426C854.53 51.426 853.339 52.031 852.495 53.241C851.652 54.4143 851.23 56.101 851.23 58.301ZM897.592 63.691C897.592 66.4777 896.547 68.6593 894.457 70.236C892.367 71.8127 889.287 72.601 885.217 72.601C883.677 72.601 882.247 72.491 880.927 72.271C879.607 72.051 878.47 71.721 877.517 71.281C876.6 70.8043 875.867 70.2177 875.317 69.521C874.804 68.8243 874.547 67.9993 874.547 67.046C874.547 66.166 874.73 65.4327 875.097 64.846C875.464 64.2227 875.904 63.7093 876.417 63.306C877.48 63.8927 878.69 64.4243 880.047 64.901C881.44 65.341 883.035 65.561 884.832 65.561C885.969 65.561 886.83 65.396 887.417 65.066C888.04 64.736 888.352 64.296 888.352 63.746C888.352 63.2327 888.132 62.8293 887.692 62.536C887.252 62.2427 886.519 62.0043 885.492 61.821L883.842 61.491C880.652 60.8677 878.269 59.896 876.692 58.576C875.152 57.2193 874.382 55.2943 874.382 52.801C874.382 51.4443 874.675 50.216 875.262 49.116C875.849 48.016 876.674 47.0993 877.737 46.366C878.8 45.6327 880.065 45.0643 881.532 44.661C883.035 44.2577 884.685 44.056 886.482 44.056C887.839 44.056 889.104 44.166 890.277 44.386C891.487 44.5693 892.532 44.8627 893.412 45.266C894.292 45.6693 894.989 46.201 895.502 46.861C896.015 47.4843 896.272 48.236 896.272 49.116C896.272 49.9593 896.107 50.6927 895.777 51.316C895.484 51.9027 895.099 52.3977 894.622 52.801C894.329 52.6177 893.889 52.4343 893.302 52.251C892.715 52.031 892.074 51.8477 891.377 51.701C890.68 51.5177 889.965 51.371 889.232 51.261C888.535 51.151 887.894 51.096 887.307 51.096C886.097 51.096 885.162 51.2427 884.502 51.536C883.842 51.7927 883.512 52.2143 883.512 52.801C883.512 53.2043 883.695 53.5343 884.062 53.791C884.429 54.0477 885.125 54.286 886.152 54.506L887.857 54.891C891.377 55.6977 893.87 56.816 895.337 58.246C896.84 59.6393 897.592 61.4543 897.592 63.691Z" fill="black"/>
</svg>
