<svg width="1175" height="300" viewBox="0 0 1175 300" fill="none" xmlns="http://www.w3.org/2000/svg">
    <path d="M357.144 236.36C357.144 243.8 355.824 249.32 353.184 252.92C350.544 256.52 346.344 260 340.584 263.36C337.224 265.28 333.024 267.2 327.984 269.12C322.944 270.8 317.424 272.24 311.424 273.44C305.424 274.88 299.064 275.96 292.344 276.68C285.864 277.4 279.384 277.76 272.904 277.76C255.624 277.76 239.424 275.48 224.304 270.92C209.184 266.12 195.984 259.04 184.704 249.68C173.664 240.08 164.904 228.2 158.424 214.04C151.944 199.88 148.704 183.44 148.704 164.72C148.704 145.04 152.184 127.88 159.144 113.24C166.344 98.6 175.704 86.48 187.224 76.88C198.984 67.04 212.304 59.72 227.184 54.92C242.304 50.12 257.784 47.72 273.624 47.72C296.424 47.72 314.424 51.44 327.624 58.88C341.064 66.08 347.784 75.56 347.784 87.32C347.784 93.56 346.224 98.96 343.104 103.52C339.984 108.08 336.384 111.68 332.304 114.32C326.304 110.72 318.744 107.24 309.624 103.88C300.744 100.28 290.664 98.48 279.384 98.48C259.224 98.48 243.144 104.24 231.144 115.76C219.384 127.28 213.504 143.24 213.504 163.64C213.504 174.68 215.064 184.28 218.184 192.44C221.544 200.36 225.984 206.96 231.504 212.24C237.024 217.28 243.384 221.12 250.584 223.76C257.784 226.16 265.464 227.36 273.624 227.36C278.904 227.36 283.584 226.88 287.664 225.92C291.744 224.96 294.864 223.88 297.024 222.68V188.84H258.504C257.064 186.2 255.624 182.72 254.184 178.4C252.984 174.08 252.384 169.52 252.384 164.72C252.384 156.08 254.304 149.84 258.144 146C262.224 142.16 267.384 140.24 273.624 140.24H334.464C341.664 140.24 347.184 142.28 351.024 146.36C355.104 150.2 357.144 155.72 357.144 162.92V236.36Z" fill="#4F46E5"/>
    <path d="M574.967 184.52C574.967 199.4 572.687 212.72 568.127 224.48C563.567 236 557.087 245.72 548.687 253.64C540.527 261.56 530.687 267.56 519.167 271.64C507.647 275.72 494.807 277.76 480.647 277.76C466.487 277.76 453.647 275.6 442.127 271.28C430.607 266.96 420.647 260.84 412.247 252.92C404.087 244.76 397.727 234.92 393.167 223.4C388.607 211.88 386.327 198.92 386.327 184.52C386.327 170.36 388.607 157.52 393.167 146C397.727 134.48 404.087 124.76 412.247 116.84C420.647 108.68 430.607 102.44 442.127 98.12C453.647 93.8 466.487 91.64 480.647 91.64C494.807 91.64 507.647 93.92 519.167 98.48C530.687 102.8 540.527 109.04 548.687 117.2C557.087 125.12 563.567 134.84 568.127 146.36C572.687 157.88 574.967 170.6 574.967 184.52ZM448.967 184.52C448.967 199.16 451.727 210.44 457.247 218.36C463.007 226.04 470.927 229.88 481.007 229.88C491.087 229.88 498.767 225.92 504.047 218C509.567 210.08 512.327 198.92 512.327 184.52C512.327 170.12 509.567 159.08 504.047 151.4C498.527 143.48 490.727 139.52 480.647 139.52C470.567 139.52 462.767 143.48 457.247 151.4C451.727 159.08 448.967 170.12 448.967 184.52Z" fill="#7ED957"/>
    <path d="M785.904 184.52C785.904 199.4 783.624 212.72 779.064 224.48C774.504 236 768.024 245.72 759.624 253.64C751.464 261.56 741.624 267.56 730.104 271.64C718.584 275.72 705.744 277.76 691.584 277.76C677.424 277.76 664.584 275.6 653.064 271.28C641.544 266.96 631.584 260.84 623.184 252.92C615.024 244.76 608.664 234.92 604.104 223.4C599.544 211.88 597.264 198.92 597.264 184.52C597.264 170.36 599.544 157.52 604.104 146C608.664 134.48 615.024 124.76 623.184 116.84C631.584 108.68 641.544 102.44 653.064 98.12C664.584 93.8 677.424 91.64 691.584 91.64C705.744 91.64 718.584 93.92 730.104 98.48C741.624 102.8 751.464 109.04 759.624 117.2C768.024 125.12 774.504 134.84 779.064 146.36C783.624 157.88 785.904 170.6 785.904 184.52ZM659.904 184.52C659.904 199.16 662.664 210.44 668.184 218.36C673.944 226.04 681.864 229.88 691.944 229.88C702.024 229.88 709.704 225.92 714.984 218C720.504 210.08 723.264 198.92 723.264 184.52C723.264 170.12 720.504 159.08 714.984 151.4C709.464 143.48 701.664 139.52 691.584 139.52C681.504 139.52 673.704 143.48 668.184 151.4C662.664 159.08 659.904 170.12 659.904 184.52Z" fill="#FFBD59"/>
    <path d="M808.202 184.52C808.202 168.68 810.602 155 815.402 143.48C820.202 131.72 826.802 122 835.202 114.32C843.842 106.64 853.802 101 865.082 97.4C876.602 93.56 888.962 91.64 902.162 91.64C906.962 91.64 911.642 92.12 916.202 93.08C920.762 93.8 924.482 94.76 927.362 95.96V37.64C929.762 36.92 933.602 36.2 938.882 35.48C944.162 34.52 949.562 34.04 955.082 34.04C960.362 34.04 965.042 34.4 969.122 35.12C973.442 35.84 977.042 37.28 979.922 39.44C982.802 41.6 984.962 44.6 986.402 48.44C987.842 52.04 988.562 56.84 988.562 62.84V233.48C988.562 244.76 983.282 253.76 972.722 260.48C965.762 265.04 956.762 269 945.722 272.36C934.682 275.96 921.962 277.76 907.562 277.76C891.962 277.76 877.922 275.6 865.442 271.28C853.202 266.96 842.762 260.72 834.122 252.56C825.722 244.4 819.242 234.68 814.682 223.4C810.362 211.88 808.202 198.92 808.202 184.52ZM910.442 139.52C897.482 139.52 887.522 143.24 880.562 150.68C873.602 158.12 870.122 169.4 870.122 184.52C870.122 199.4 873.362 210.68 879.842 218.36C886.322 225.8 895.682 229.52 907.922 229.52C912.242 229.52 916.082 228.92 919.442 227.72C923.042 226.28 925.802 224.72 927.722 223.04V143.84C922.922 140.96 917.162 139.52 910.442 139.52Z" fill="#FF5757"/>
    <path d="M394.612 45.046C391.788 45.046 389.625 45.9077 388.122 47.631C386.618 49.3543 385.867 51.7927 385.867 54.946C385.867 58.136 386.692 60.5927 388.342 62.316C390.028 64.0393 392.283 64.901 395.107 64.901C396.61 64.901 397.875 64.6993 398.902 64.296C399.965 63.8927 400.973 63.4343 401.927 62.921C402.55 63.4343 403.027 64.0577 403.357 64.791C403.723 65.4877 403.907 66.3127 403.907 67.266C403.907 68.7693 403.063 70.0527 401.377 71.116C399.727 72.1427 397.197 72.656 393.787 72.656C391.33 72.656 389.02 72.3077 386.857 71.611C384.693 70.9143 382.805 69.851 381.192 68.421C379.578 66.9543 378.295 65.121 377.342 62.921C376.425 60.6843 375.967 58.026 375.967 54.946C375.967 52.086 376.407 49.5743 377.287 47.411C378.203 45.211 379.432 43.3593 380.972 41.856C382.548 40.3527 384.382 39.216 386.472 38.446C388.562 37.676 390.798 37.291 393.182 37.291C396.555 37.291 399.158 37.841 400.992 38.941C402.862 40.041 403.797 41.4527 403.797 43.176C403.797 44.1293 403.558 44.9543 403.082 45.651C402.605 46.3477 402.055 46.8977 401.432 47.301C400.478 46.6777 399.452 46.146 398.352 45.706C397.288 45.266 396.042 45.046 394.612 45.046ZM435.289 58.301C435.289 60.5743 434.941 62.6093 434.244 64.406C433.548 66.166 432.558 67.651 431.274 68.861C430.028 70.071 428.524 70.9877 426.764 71.611C425.004 72.2343 423.043 72.546 420.879 72.546C418.716 72.546 416.754 72.216 414.994 71.556C413.234 70.896 411.713 69.961 410.429 68.751C409.183 67.5043 408.211 66.001 407.514 64.241C406.818 62.481 406.469 60.501 406.469 58.301C406.469 56.1377 406.818 54.176 407.514 52.416C408.211 50.656 409.183 49.171 410.429 47.961C411.713 46.7143 413.234 45.761 414.994 45.101C416.754 44.441 418.716 44.111 420.879 44.111C423.043 44.111 425.004 44.4593 426.764 45.156C428.524 45.816 430.028 46.7693 431.274 48.016C432.558 49.226 433.548 50.711 434.244 52.471C434.941 54.231 435.289 56.1743 435.289 58.301ZM416.039 58.301C416.039 60.5377 416.461 62.261 417.304 63.471C418.184 64.6443 419.394 65.231 420.934 65.231C422.474 65.231 423.648 64.626 424.454 63.416C425.298 62.206 425.719 60.501 425.719 58.301C425.719 56.101 425.298 54.4143 424.454 53.241C423.611 52.031 422.419 51.426 420.879 51.426C419.339 51.426 418.148 52.031 417.304 53.241C416.461 54.4143 416.039 56.101 416.039 58.301ZM449.201 71.611C448.834 71.721 448.248 71.831 447.441 71.941C446.671 72.051 445.864 72.106 445.021 72.106C444.214 72.106 443.481 72.051 442.821 71.941C442.198 71.831 441.666 71.611 441.226 71.281C440.786 70.951 440.438 70.511 440.181 69.961C439.961 69.3743 439.851 68.6227 439.851 67.706V51.206C439.851 50.3627 439.998 49.6477 440.291 49.061C440.621 48.4377 441.079 47.8877 441.666 47.411C442.253 46.9343 442.968 46.5127 443.811 46.146C444.691 45.7427 445.626 45.3943 446.616 45.101C447.606 44.8077 448.633 44.5877 449.696 44.441C450.759 44.2577 451.823 44.166 452.886 44.166C454.646 44.166 456.039 44.5143 457.066 45.211C458.093 45.871 458.606 46.971 458.606 48.511C458.606 49.0243 458.533 49.5377 458.386 50.051C458.239 50.5277 458.056 50.9677 457.836 51.371C457.066 51.371 456.278 51.4077 455.471 51.481C454.664 51.5543 453.876 51.6643 453.106 51.811C452.336 51.9577 451.603 52.1227 450.906 52.306C450.246 52.4527 449.678 52.636 449.201 52.856V71.611ZM471.276 71.611C470.909 71.721 470.323 71.831 469.516 71.941C468.746 72.051 467.939 72.106 467.096 72.106C466.289 72.106 465.556 72.051 464.896 71.941C464.273 71.831 463.741 71.611 463.301 71.281C462.861 70.951 462.513 70.511 462.256 69.961C462.036 69.3743 461.926 68.6227 461.926 67.706V51.206C461.926 50.3627 462.073 49.6477 462.366 49.061C462.696 48.4377 463.154 47.8877 463.741 47.411C464.328 46.9343 465.043 46.5127 465.886 46.146C466.766 45.7427 467.701 45.3943 468.691 45.101C469.681 44.8077 470.708 44.5877 471.771 44.441C472.834 44.2577 473.898 44.166 474.961 44.166C476.721 44.166 478.114 44.5143 479.141 45.211C480.168 45.871 480.681 46.971 480.681 48.511C480.681 49.0243 480.608 49.5377 480.461 50.051C480.314 50.5277 480.131 50.9677 479.911 51.371C479.141 51.371 478.353 51.4077 477.546 51.481C476.739 51.5543 475.951 51.6643 475.181 51.811C474.411 51.9577 473.678 52.1227 472.981 52.306C472.321 52.4527 471.753 52.636 471.276 52.856V71.611ZM497.653 72.546C495.49 72.546 493.473 72.2527 491.603 71.666C489.77 71.0427 488.156 70.126 486.763 68.916C485.406 67.706 484.325 66.1843 483.518 64.351C482.748 62.5177 482.363 60.3727 482.363 57.916C482.363 55.496 482.748 53.4243 483.518 51.701C484.325 49.941 485.37 48.511 486.653 47.411C487.936 46.2743 489.403 45.4493 491.053 44.936C492.703 44.386 494.39 44.111 496.113 44.111C498.056 44.111 499.816 44.4043 501.393 44.991C503.006 45.5777 504.381 46.3843 505.518 47.411C506.691 48.4377 507.59 49.666 508.213 51.096C508.873 52.526 509.203 54.0843 509.203 55.771C509.203 57.0177 508.855 57.971 508.158 58.631C507.461 59.291 506.49 59.7127 505.243 59.896L491.658 61.931C492.061 63.141 492.886 64.0577 494.133 64.681C495.38 65.2677 496.81 65.561 498.423 65.561C499.926 65.561 501.338 65.3777 502.658 65.011C504.015 64.6077 505.115 64.1493 505.958 63.636C506.545 64.0027 507.04 64.516 507.443 65.176C507.846 65.836 508.048 66.5327 508.048 67.266C508.048 68.916 507.278 70.1443 505.738 70.951C504.565 71.5743 503.245 71.996 501.778 72.216C500.311 72.436 498.936 72.546 497.653 72.546ZM496.113 50.931C495.233 50.931 494.463 51.0777 493.803 51.371C493.18 51.6643 492.666 52.0493 492.263 52.526C491.86 52.966 491.548 53.4793 491.328 54.066C491.145 54.616 491.035 55.1843 490.998 55.771L500.403 54.231C500.293 53.4977 499.89 52.7643 499.193 52.031C498.496 51.2977 497.47 50.931 496.113 50.931ZM523.053 62.481C523.053 63.4343 523.347 64.1127 523.933 64.516C524.557 64.9193 525.418 65.121 526.518 65.121C527.068 65.121 527.637 65.0843 528.223 65.011C528.81 64.901 529.323 64.7727 529.763 64.626C530.093 65.0293 530.368 65.4877 530.588 66.001C530.845 66.4777 530.973 67.0643 530.973 67.761C530.973 69.1543 530.442 70.291 529.378 71.171C528.352 72.051 526.518 72.491 523.878 72.491C520.652 72.491 518.158 71.7577 516.398 70.291C514.675 68.8243 513.813 66.441 513.813 63.141V39.601C514.217 39.491 514.785 39.381 515.518 39.271C516.288 39.1243 517.095 39.051 517.938 39.051C519.552 39.051 520.798 39.3443 521.678 39.931C522.595 40.481 523.053 41.6727 523.053 43.506V47.026H530.258C530.478 47.4293 530.68 47.9427 530.863 48.566C531.083 49.1527 531.193 49.8127 531.193 50.546C531.193 51.8293 530.9 52.7643 530.313 53.351C529.763 53.901 529.012 54.176 528.058 54.176H523.053V62.481ZM563.068 58.301C563.068 60.5743 562.719 62.6093 562.023 64.406C561.326 66.166 560.336 67.651 559.053 68.861C557.806 70.071 556.303 70.9877 554.543 71.611C552.783 72.2343 550.821 72.546 548.658 72.546C546.494 72.546 544.533 72.216 542.773 71.556C541.013 70.896 539.491 69.961 538.208 68.751C536.961 67.5043 535.989 66.001 535.293 64.241C534.596 62.481 534.248 60.501 534.248 58.301C534.248 56.1377 534.596 54.176 535.293 52.416C535.989 50.656 536.961 49.171 538.208 47.961C539.491 46.7143 541.013 45.761 542.773 45.101C544.533 44.441 546.494 44.111 548.658 44.111C550.821 44.111 552.783 44.4593 554.543 45.156C556.303 45.816 557.806 46.7693 559.053 48.016C560.336 49.226 561.326 50.711 562.023 52.471C562.719 54.231 563.068 56.1743 563.068 58.301ZM543.818 58.301C543.818 60.5377 544.239 62.261 545.083 63.471C545.963 64.6443 547.173 65.231 548.713 65.231C550.253 65.231 551.426 64.626 552.233 63.416C553.076 62.206 553.498 60.501 553.498 58.301C553.498 56.101 553.076 54.4143 552.233 53.241C551.389 52.031 550.198 51.426 548.658 51.426C547.118 51.426 545.926 52.031 545.083 53.241C544.239 54.4143 543.818 56.101 543.818 58.301ZM576.979 71.611C576.612 71.721 576.026 71.831 575.219 71.941C574.449 72.051 573.642 72.106 572.799 72.106C571.992 72.106 571.259 72.051 570.599 71.941C569.976 71.831 569.444 71.611 569.004 71.281C568.564 70.951 568.216 70.511 567.959 69.961C567.739 69.3743 567.629 68.6227 567.629 67.706V51.206C567.629 50.3627 567.776 49.6477 568.069 49.061C568.399 48.4377 568.857 47.8877 569.444 47.411C570.031 46.9343 570.746 46.5127 571.589 46.146C572.469 45.7427 573.404 45.3943 574.394 45.101C575.384 44.8077 576.411 44.5877 577.474 44.441C578.537 44.2577 579.601 44.166 580.664 44.166C582.424 44.166 583.817 44.5143 584.844 45.211C585.871 45.871 586.384 46.971 586.384 48.511C586.384 49.0243 586.311 49.5377 586.164 50.051C586.017 50.5277 585.834 50.9677 585.614 51.371C584.844 51.371 584.056 51.4077 583.249 51.481C582.442 51.5543 581.654 51.6643 580.884 51.811C580.114 51.9577 579.381 52.1227 578.684 52.306C578.024 52.4527 577.456 52.636 576.979 52.856V71.611ZM600.876 65.726C601.499 65.726 602.177 65.671 602.911 65.561C603.681 65.4143 604.249 65.231 604.616 65.011V60.611L600.656 60.941C599.629 61.0143 598.786 61.2343 598.126 61.601C597.466 61.9677 597.136 62.5177 597.136 63.251C597.136 63.9843 597.411 64.5893 597.961 65.066C598.547 65.506 599.519 65.726 600.876 65.726ZM600.436 44.111C602.416 44.111 604.212 44.3127 605.826 44.716C607.476 45.1193 608.869 45.7427 610.006 46.586C611.179 47.3927 612.077 48.4377 612.701 49.721C613.324 50.9677 613.636 52.4527 613.636 54.176V66.496C613.636 67.4493 613.361 68.2377 612.811 68.861C612.297 69.4477 611.674 69.961 610.941 70.401C608.557 71.831 605.202 72.546 600.876 72.546C598.932 72.546 597.172 72.3627 595.596 71.996C594.056 71.6293 592.717 71.0793 591.581 70.346C590.481 69.6127 589.619 68.6777 588.996 67.541C588.409 66.4043 588.116 65.0843 588.116 63.581C588.116 61.051 588.867 59.1077 590.371 57.751C591.874 56.3943 594.202 55.551 597.356 55.221L604.561 54.451V54.066C604.561 53.0027 604.084 52.251 603.131 51.811C602.214 51.3343 600.876 51.096 599.116 51.096C597.722 51.096 596.366 51.2427 595.046 51.536C593.726 51.8293 592.534 52.196 591.471 52.636C590.994 52.306 590.591 51.811 590.261 51.151C589.931 50.4543 589.766 49.7393 589.766 49.006C589.766 48.0527 589.986 47.301 590.426 46.751C590.902 46.1643 591.617 45.6693 592.571 45.266C593.634 44.8627 594.881 44.5693 596.311 44.386C597.777 44.2027 599.152 44.111 600.436 44.111ZM629.209 58.301C629.209 55.881 629.575 53.791 630.309 52.031C631.042 50.2343 632.05 48.7493 633.334 47.576C634.654 46.4027 636.175 45.541 637.899 44.991C639.659 44.4043 641.547 44.111 643.564 44.111C644.297 44.111 645.012 44.1843 645.709 44.331C646.405 44.441 646.974 44.5877 647.414 44.771V35.861C647.78 35.751 648.367 35.641 649.174 35.531C649.98 35.3843 650.805 35.311 651.649 35.311C652.455 35.311 653.17 35.366 653.794 35.476C654.454 35.586 655.004 35.806 655.444 36.136C655.884 36.466 656.214 36.9243 656.434 37.511C656.654 38.061 656.764 38.7943 656.764 39.711V65.781C656.764 67.5043 655.957 68.8793 654.344 69.906C653.28 70.6027 651.905 71.2077 650.219 71.721C648.532 72.271 646.589 72.546 644.389 72.546C642.005 72.546 639.86 72.216 637.954 71.556C636.084 70.896 634.489 69.9427 633.169 68.696C631.885 67.4493 630.895 65.9643 630.199 64.241C629.539 62.481 629.209 60.501 629.209 58.301ZM644.829 51.426C642.849 51.426 641.327 51.9943 640.264 53.131C639.2 54.2677 638.669 55.991 638.669 58.301C638.669 60.5743 639.164 62.2977 640.154 63.471C641.144 64.6077 642.574 65.176 644.444 65.176C645.104 65.176 645.69 65.0843 646.204 64.901C646.754 64.681 647.175 64.4427 647.469 64.186V52.086C646.735 51.646 645.855 51.426 644.829 51.426ZM676.725 72.546C674.562 72.546 672.545 72.2527 670.675 71.666C668.842 71.0427 667.228 70.126 665.835 68.916C664.478 67.706 663.397 66.1843 662.59 64.351C661.82 62.5177 661.435 60.3727 661.435 57.916C661.435 55.496 661.82 53.4243 662.59 51.701C663.397 49.941 664.442 48.511 665.725 47.411C667.008 46.2743 668.475 45.4493 670.125 44.936C671.775 44.386 673.462 44.111 675.185 44.111C677.128 44.111 678.888 44.4043 680.465 44.991C682.078 45.5777 683.453 46.3843 684.59 47.411C685.763 48.4377 686.662 49.666 687.285 51.096C687.945 52.526 688.275 54.0843 688.275 55.771C688.275 57.0177 687.927 57.971 687.23 58.631C686.533 59.291 685.562 59.7127 684.315 59.896L670.73 61.931C671.133 63.141 671.958 64.0577 673.205 64.681C674.452 65.2677 675.882 65.561 677.495 65.561C678.998 65.561 680.41 65.3777 681.73 65.011C683.087 64.6077 684.187 64.1493 685.03 63.636C685.617 64.0027 686.112 64.516 686.515 65.176C686.918 65.836 687.12 66.5327 687.12 67.266C687.12 68.916 686.35 70.1443 684.81 70.951C683.637 71.5743 682.317 71.996 680.85 72.216C679.383 72.436 678.008 72.546 676.725 72.546ZM675.185 50.931C674.305 50.931 673.535 51.0777 672.875 51.371C672.252 51.6643 671.738 52.0493 671.335 52.526C670.932 52.966 670.62 53.4793 670.4 54.066C670.217 54.616 670.107 55.1843 670.07 55.771L679.475 54.231C679.365 53.4977 678.962 52.7643 678.265 52.031C677.568 51.2977 676.542 50.931 675.185 50.931ZM713.961 58.411C712.348 57.861 710.881 57.311 709.561 56.761C708.241 56.1743 707.105 55.4777 706.151 54.671C705.198 53.8643 704.446 52.911 703.896 51.811C703.383 50.6743 703.126 49.2993 703.126 47.686C703.126 44.5693 704.318 42.076 706.701 40.206C709.121 38.336 712.495 37.401 716.821 37.401C718.398 37.401 719.865 37.511 721.221 37.731C722.578 37.951 723.733 38.2993 724.686 38.776C725.676 39.216 726.446 39.8027 726.996 40.536C727.546 41.2327 727.821 42.0577 727.821 43.011C727.821 43.9643 727.601 44.7893 727.161 45.486C726.721 46.146 726.19 46.7143 725.566 47.191C724.76 46.6777 723.678 46.2377 722.321 45.871C720.965 45.4677 719.48 45.266 717.866 45.266C716.216 45.266 715.006 45.5043 714.236 45.981C713.466 46.421 713.081 46.9893 713.081 47.686C713.081 48.236 713.32 48.6943 713.796 49.061C714.273 49.391 714.988 49.7027 715.941 49.996L718.856 50.931C722.303 52.031 724.943 53.4427 726.776 55.166C728.646 56.8527 729.581 59.1627 729.581 62.096C729.581 65.2127 728.353 67.7427 725.896 69.686C723.44 71.5927 719.828 72.546 715.061 72.546C713.375 72.546 711.798 72.3993 710.331 72.106C708.901 71.8493 707.636 71.4643 706.536 70.951C705.473 70.401 704.63 69.741 704.006 68.971C703.42 68.1643 703.126 67.2477 703.126 66.221C703.126 65.1577 703.438 64.2593 704.061 63.526C704.685 62.756 705.363 62.1693 706.096 61.766C707.123 62.5727 708.37 63.2693 709.836 63.856C711.34 64.4427 712.971 64.736 714.731 64.736C716.528 64.736 717.793 64.461 718.526 63.911C719.26 63.361 719.626 62.7193 719.626 61.986C719.626 61.2527 719.333 60.7027 718.746 60.336C718.16 59.9327 717.335 59.5477 716.271 59.181L713.961 58.411ZM748.322 72.546C746.158 72.546 744.142 72.2527 742.272 71.666C740.438 71.0427 738.825 70.126 737.432 68.916C736.075 67.706 734.993 66.1843 734.187 64.351C733.417 62.5177 733.032 60.3727 733.032 57.916C733.032 55.496 733.417 53.4243 734.187 51.701C734.993 49.941 736.038 48.511 737.322 47.411C738.605 46.2743 740.072 45.4493 741.722 44.936C743.372 44.386 745.058 44.111 746.782 44.111C748.725 44.111 750.485 44.4043 752.062 44.991C753.675 45.5777 755.05 46.3843 756.187 47.411C757.36 48.4377 758.258 49.666 758.882 51.096C759.542 52.526 759.872 54.0843 759.872 55.771C759.872 57.0177 759.523 57.971 758.827 58.631C758.13 59.291 757.158 59.7127 755.912 59.896L742.327 61.931C742.73 63.141 743.555 64.0577 744.802 64.681C746.048 65.2677 747.478 65.561 749.092 65.561C750.595 65.561 752.007 65.3777 753.327 65.011C754.683 64.6077 755.783 64.1493 756.627 63.636C757.213 64.0027 757.708 64.516 758.112 65.176C758.515 65.836 758.717 66.5327 758.717 67.266C758.717 68.916 757.947 70.1443 756.407 70.951C755.233 71.5743 753.913 71.996 752.447 72.216C750.98 72.436 749.605 72.546 748.322 72.546ZM746.782 50.931C745.902 50.931 745.132 51.0777 744.472 51.371C743.848 51.6643 743.335 52.0493 742.932 52.526C742.528 52.966 742.217 53.4793 741.997 54.066C741.813 54.616 741.703 55.1843 741.667 55.771L751.072 54.231C750.962 53.4977 750.558 52.7643 749.862 52.031C749.165 51.2977 748.138 50.931 746.782 50.931ZM777.407 44.111C779.497 44.111 781.386 44.386 783.072 44.936C784.796 45.4493 786.244 46.1277 787.417 46.971C788.151 47.4843 788.719 48.0527 789.122 48.676C789.562 49.2993 789.782 50.106 789.782 51.096V70.346C789.782 72.2893 789.416 73.9577 788.682 75.351C787.949 76.781 786.941 77.9543 785.657 78.871C784.411 79.8243 782.926 80.521 781.202 80.961C779.516 81.401 777.701 81.621 775.757 81.621C772.421 81.621 769.799 81.1627 767.892 80.246C765.986 79.366 765.032 77.9177 765.032 75.901C765.032 75.0577 765.197 74.306 765.527 73.646C765.894 73.0227 766.297 72.546 766.737 72.216C767.801 72.8027 768.992 73.2977 770.312 73.701C771.669 74.1043 773.062 74.306 774.492 74.306C776.472 74.306 778.049 73.976 779.222 73.316C780.396 72.656 780.982 71.5927 780.982 70.126V69.246C779.479 69.906 777.646 70.236 775.482 70.236C773.832 70.236 772.256 69.9977 770.752 69.521C769.286 69.0077 767.984 68.2377 766.847 67.211C765.747 66.1477 764.849 64.791 764.152 63.141C763.492 61.491 763.162 59.5293 763.162 57.256C763.162 55.0193 763.511 53.076 764.207 51.426C764.941 49.776 765.931 48.4193 767.177 47.356C768.461 46.256 769.964 45.4493 771.687 44.936C773.447 44.386 775.354 44.111 777.407 44.111ZM780.817 52.086C780.561 51.9393 780.176 51.7927 779.662 51.646C779.186 51.4993 778.581 51.426 777.847 51.426C776.051 51.426 774.694 51.9393 773.777 52.966C772.897 53.956 772.457 55.386 772.457 57.256C772.457 59.3827 772.897 60.9227 773.777 61.876C774.694 62.7927 775.849 63.251 777.242 63.251C778.746 63.251 779.937 62.9027 780.817 62.206V52.086ZM795.578 45.321C795.945 45.211 796.513 45.101 797.283 44.991C798.09 44.881 798.915 44.826 799.758 44.826C800.565 44.826 801.28 44.881 801.903 44.991C802.563 45.101 803.113 45.321 803.553 45.651C803.993 45.981 804.323 46.4393 804.543 47.026C804.8 47.576 804.928 48.3093 804.928 49.226V61.051C804.928 62.5543 805.295 63.636 806.028 64.296C806.762 64.9193 807.825 65.231 809.218 65.231C810.062 65.231 810.74 65.1577 811.253 65.011C811.803 64.8643 812.225 64.7177 812.518 64.571V45.321C812.885 45.211 813.453 45.101 814.223 44.991C815.03 44.881 815.855 44.826 816.698 44.826C817.505 44.826 818.22 44.881 818.843 44.991C819.503 45.101 820.053 45.321 820.493 45.651C820.933 45.981 821.263 46.4393 821.483 47.026C821.74 47.576 821.868 48.3093 821.868 49.226V65.946C821.868 67.7793 821.098 69.1543 819.558 70.071C818.275 70.8777 816.735 71.4827 814.938 71.886C813.178 72.326 811.253 72.546 809.163 72.546C807.183 72.546 805.35 72.326 803.663 71.886C802.013 71.446 800.583 70.7677 799.373 69.851C798.163 68.9343 797.228 67.761 796.568 66.331C795.908 64.8643 795.578 63.1043 795.578 61.051V45.321ZM836.94 71.611C836.573 71.721 835.987 71.831 835.18 71.941C834.41 72.051 833.603 72.106 832.76 72.106C831.953 72.106 831.22 72.051 830.56 71.941C829.937 71.831 829.405 71.611 828.965 71.281C828.525 70.951 828.177 70.511 827.92 69.961C827.7 69.3743 827.59 68.6227 827.59 67.706V51.206C827.59 50.3627 827.737 49.6477 828.03 49.061C828.36 48.4377 828.818 47.8877 829.405 47.411C829.992 46.9343 830.707 46.5127 831.55 46.146C832.43 45.7427 833.365 45.3943 834.355 45.101C835.345 44.8077 836.372 44.5877 837.435 44.441C838.498 44.2577 839.562 44.166 840.625 44.166C842.385 44.166 843.778 44.5143 844.805 45.211C845.832 45.871 846.345 46.971 846.345 48.511C846.345 49.0243 846.272 49.5377 846.125 50.051C845.978 50.5277 845.795 50.9677 845.575 51.371C844.805 51.371 844.017 51.4077 843.21 51.481C842.403 51.5543 841.615 51.6643 840.845 51.811C840.075 51.9577 839.342 52.1227 838.645 52.306C837.985 52.4527 837.417 52.636 836.94 52.856V71.611ZM876.847 58.301C876.847 60.5743 876.499 62.6093 875.802 64.406C875.105 66.166 874.115 67.651 872.832 68.861C871.585 70.071 870.082 70.9877 868.322 71.611C866.562 72.2343 864.6 72.546 862.437 72.546C860.274 72.546 858.312 72.216 856.552 71.556C854.792 70.896 853.27 69.961 851.987 68.751C850.74 67.5043 849.769 66.001 849.072 64.241C848.375 62.481 848.027 60.501 848.027 58.301C848.027 56.1377 848.375 54.176 849.072 52.416C849.769 50.656 850.74 49.171 851.987 47.961C853.27 46.7143 854.792 45.761 856.552 45.101C858.312 44.441 860.274 44.111 862.437 44.111C864.6 44.111 866.562 44.4593 868.322 45.156C870.082 45.816 871.585 46.7693 872.832 48.016C874.115 49.226 875.105 50.711 875.802 52.471C876.499 54.231 876.847 56.1743 876.847 58.301ZM857.597 58.301C857.597 60.5377 858.019 62.261 858.862 63.471C859.742 64.6443 860.952 65.231 862.492 65.231C864.032 65.231 865.205 64.626 866.012 63.416C866.855 62.206 867.277 60.501 867.277 58.301C867.277 56.101 866.855 54.4143 866.012 53.241C865.169 52.031 863.977 51.426 862.437 51.426C860.897 51.426 859.705 52.031 858.862 53.241C858.019 54.4143 857.597 56.101 857.597 58.301ZM903.958 63.691C903.958 66.4777 902.913 68.6593 900.823 70.236C898.733 71.8127 895.653 72.601 891.583 72.601C890.043 72.601 888.613 72.491 887.293 72.271C885.973 72.051 884.837 71.721 883.883 71.281C882.967 70.8043 882.233 70.2177 881.683 69.521C881.17 68.8243 880.913 67.9993 880.913 67.046C880.913 66.166 881.097 65.4327 881.463 64.846C881.83 64.2227 882.27 63.7093 882.783 63.306C883.847 63.8927 885.057 64.4243 886.413 64.901C887.807 65.341 889.402 65.561 891.198 65.561C892.335 65.561 893.197 65.396 893.783 65.066C894.407 64.736 894.718 64.296 894.718 63.746C894.718 63.2327 894.498 62.8293 894.058 62.536C893.618 62.2427 892.885 62.0043 891.858 61.821L890.208 61.491C887.018 60.8677 884.635 59.896 883.058 58.576C881.518 57.2193 880.748 55.2943 880.748 52.801C880.748 51.4443 881.042 50.216 881.628 49.116C882.215 48.016 883.04 47.0993 884.103 46.366C885.167 45.6327 886.432 45.0643 887.898 44.661C889.402 44.2577 891.052 44.056 892.848 44.056C894.205 44.056 895.47 44.166 896.643 44.386C897.853 44.5693 898.898 44.8627 899.778 45.266C900.658 45.6693 901.355 46.201 901.868 46.861C902.382 47.4843 902.638 48.236 902.638 49.116C902.638 49.9593 902.473 50.6927 902.143 51.316C901.85 51.9027 901.465 52.3977 900.988 52.801C900.695 52.6177 900.255 52.4343 899.668 52.251C899.082 52.031 898.44 51.8477 897.743 51.701C897.047 51.5177 896.332 51.371 895.598 51.261C894.902 51.151 894.26 51.096 893.673 51.096C892.463 51.096 891.528 51.2427 890.868 51.536C890.208 51.7927 889.878 52.2143 889.878 52.801C889.878 53.2043 890.062 53.5343 890.428 53.791C890.795 54.0477 891.492 54.286 892.518 54.506L894.223 54.891C897.743 55.6977 900.237 56.816 901.703 58.246C903.207 59.6393 903.958 61.4543 903.958 63.691Z" fill="white"/>
</svg>
