<?xml version="1.0" encoding="UTF-8"?>
<svg xmlns="http://www.w3.org/2000/svg" xmlns:xlink="http://www.w3.org/1999/xlink" width="112.5pt" height="74.999997pt" viewBox="0 0 112.5 74.999997" version="1.2">
<defs>
<clipPath id="clip1">
  <path d="M 40 38 L 75 38 L 75 71.832031 L 40 71.832031 Z M 40 38 "/>
</clipPath>
<clipPath id="clip2">
  <path d="M 20.878906 5.082031 L 93.628906 5.082031 L 93.628906 63 L 20.878906 63 Z M 20.878906 5.082031 "/>
</clipPath>
</defs>
<g id="surface1">
<g clip-path="url(#clip1)" clip-rule="nonzero">
<path style=" stroke:none;fill-rule:nonzero;fill:rgb(0%,29.019165%,67.83905%);fill-opacity:1;" d="M 57.484375 71.773438 C 48.320312 71.773438 40.871094 64.355469 40.871094 55.230469 C 40.871094 46.101562 48.320312 38.683594 57.484375 38.683594 C 66.648438 38.683594 74.097656 46.101562 74.097656 55.230469 C 74.097656 64.355469 66.648438 71.773438 57.484375 71.773438 Z M 57.484375 41.023438 C 49.578125 41.023438 43.164062 47.414062 43.164062 55.285156 C 43.164062 63.160156 49.578125 69.546875 57.484375 69.546875 C 65.390625 69.546875 71.804688 63.160156 71.804688 55.285156 C 71.804688 47.414062 65.390625 41.023438 57.484375 41.023438 Z M 57.484375 41.023438 "/>
</g>
<g clip-path="url(#clip2)" clip-rule="nonzero">
<path style=" stroke:none;fill-rule:nonzero;fill:rgb(0%,29.019165%,67.83905%);fill-opacity:1;" d="M 86.871094 7.648438 L 84.464844 7.648438 L 84.464844 6.28125 C 84.464844 5.652344 83.949219 5.140625 83.320312 5.140625 C 82.6875 5.140625 82.171875 5.652344 82.171875 6.28125 L 82.171875 7.648438 L 75.871094 7.648438 L 75.871094 6.28125 C 75.871094 5.652344 75.355469 5.140625 74.726562 5.140625 C 74.097656 5.140625 73.582031 5.652344 73.582031 6.28125 L 73.582031 7.648438 L 67.277344 7.648438 L 67.277344 6.28125 C 67.277344 5.652344 66.761719 5.140625 66.132812 5.140625 C 65.503906 5.140625 64.988281 5.652344 64.988281 6.28125 L 64.988281 7.648438 L 58.113281 7.648438 L 58.113281 6.28125 C 58.113281 5.652344 57.597656 5.140625 56.96875 5.140625 C 56.339844 5.140625 55.824219 5.652344 55.824219 6.28125 L 55.824219 7.648438 L 50.09375 7.648438 L 50.09375 6.28125 C 50.09375 5.652344 49.578125 5.140625 48.949219 5.140625 C 48.320312 5.140625 47.804688 5.652344 47.804688 6.28125 L 47.804688 7.648438 L 41.5 7.648438 L 41.5 6.28125 C 41.5 5.652344 40.984375 5.140625 40.355469 5.140625 C 39.726562 5.140625 39.210938 5.652344 39.210938 6.28125 L 39.210938 7.648438 L 32.910156 7.648438 L 32.910156 6.28125 C 32.910156 5.652344 32.394531 5.140625 31.761719 5.140625 C 31.132812 5.140625 30.617188 5.652344 30.617188 6.28125 L 30.617188 7.648438 L 28.15625 7.648438 C 24.144531 7.648438 20.878906 11.242188 20.878906 15.238281 L 20.878906 55.457031 C 20.878906 59.449219 24.144531 62.417969 28.15625 62.417969 L 44.25 62.417969 C 43.964844 61.847656 43.734375 60.707031 43.507812 60.136719 L 28.15625 60.136719 C 25.40625 60.136719 23.171875 58.136719 23.171875 55.457031 L 23.171875 15.636719 L 91.339844 15.636719 L 91.339844 55.457031 C 91.339844 58.195312 89.621094 60.136719 86.871094 60.136719 L 71.347656 60.136719 C 71.347656 60.136719 71.402344 60.304688 71.402344 60.363281 C 71.574219 60.421875 71.632812 60.476562 71.632812 60.589844 C 71.632812 61.21875 71.691406 61.847656 71.632812 62.417969 L 86.871094 62.417969 C 90.878906 62.417969 93.628906 59.449219 93.628906 55.457031 L 93.628906 15.238281 C 93.628906 11.242188 90.878906 7.648438 86.871094 7.648438 Z M 86.871094 7.648438 "/>
</g>
<path style=" stroke:none;fill-rule:nonzero;fill:rgb(0%,29.019165%,67.83905%);fill-opacity:1;" d="M 39.210938 25.90625 L 31.761719 25.90625 C 31.132812 25.90625 30.617188 25.390625 30.617188 24.765625 C 30.617188 24.136719 31.132812 23.621094 31.761719 23.621094 L 39.210938 23.621094 C 39.839844 23.621094 40.355469 24.136719 40.355469 24.765625 C 40.355469 25.390625 39.839844 25.90625 39.210938 25.90625 Z M 39.210938 25.90625 "/>
<path style=" stroke:none;fill-rule:nonzero;fill:rgb(0%,29.019165%,67.83905%);fill-opacity:1;" d="M 39.210938 35.03125 L 31.761719 35.03125 C 31.132812 35.03125 30.617188 34.519531 30.617188 33.890625 C 30.617188 33.265625 31.132812 32.75 31.761719 32.75 L 39.210938 32.75 C 39.839844 32.75 40.355469 33.265625 40.355469 33.890625 C 40.355469 34.519531 39.839844 35.03125 39.210938 35.03125 Z M 39.210938 35.03125 "/>
<path style=" stroke:none;fill-rule:nonzero;fill:rgb(0%,29.019165%,67.83905%);fill-opacity:1;" d="M 39.210938 44.160156 L 31.761719 44.160156 C 31.132812 44.160156 30.617188 43.648438 30.617188 43.019531 C 30.617188 42.390625 31.132812 41.878906 31.761719 41.878906 L 39.210938 41.878906 C 39.839844 41.878906 40.355469 42.390625 40.355469 43.019531 C 40.355469 43.648438 39.839844 44.160156 39.210938 44.160156 Z M 39.210938 44.160156 "/>
<path style=" stroke:none;fill-rule:nonzero;fill:rgb(0%,29.019165%,67.83905%);fill-opacity:1;" d="M 39.210938 53.289062 L 31.761719 53.289062 C 31.132812 53.289062 30.617188 52.777344 30.617188 52.148438 C 30.617188 51.519531 31.132812 51.007812 31.761719 51.007812 L 39.210938 51.007812 C 39.839844 51.007812 40.355469 51.519531 40.355469 52.148438 C 40.355469 52.777344 39.839844 53.289062 39.210938 53.289062 Z M 39.210938 53.289062 "/>
<path style=" stroke:none;fill-rule:nonzero;fill:rgb(0%,29.019165%,67.83905%);fill-opacity:1;" d="M 54.105469 25.90625 L 46.65625 25.90625 C 46.027344 25.90625 45.511719 25.390625 45.511719 24.765625 C 45.511719 24.136719 46.027344 23.621094 46.65625 23.621094 L 54.105469 23.621094 C 54.734375 23.621094 55.25 24.136719 55.25 24.765625 C 55.25 25.390625 54.734375 25.90625 54.105469 25.90625 Z M 54.105469 25.90625 "/>
<path style=" stroke:none;fill-rule:nonzero;fill:rgb(0%,29.019165%,67.83905%);fill-opacity:1;" d="M 54.105469 35.03125 L 46.65625 35.03125 C 46.027344 35.03125 45.511719 34.519531 45.511719 33.890625 C 45.511719 33.265625 46.027344 32.75 46.65625 32.75 L 54.105469 32.75 C 54.734375 32.75 55.25 33.265625 55.25 33.890625 C 55.25 34.519531 54.734375 35.03125 54.105469 35.03125 Z M 54.105469 35.03125 "/>
<path style=" stroke:none;fill-rule:nonzero;fill:rgb(0%,29.019165%,67.83905%);fill-opacity:1;" d="M 68.996094 25.90625 L 61.550781 25.90625 C 60.921875 25.90625 60.40625 25.390625 60.40625 24.765625 C 60.40625 24.136719 60.921875 23.621094 61.550781 23.621094 L 68.996094 23.621094 C 69.628906 23.621094 70.144531 24.136719 70.144531 24.765625 C 70.144531 25.390625 69.628906 25.90625 68.996094 25.90625 Z M 68.996094 25.90625 "/>
<path style=" stroke:none;fill-rule:nonzero;fill:rgb(0%,29.019165%,67.83905%);fill-opacity:1;" d="M 68.996094 35.03125 L 61.550781 35.03125 C 60.921875 35.03125 60.40625 34.519531 60.40625 33.890625 C 60.40625 33.265625 60.921875 32.75 61.550781 32.75 L 68.996094 32.75 C 69.628906 32.75 70.144531 33.265625 70.144531 33.890625 C 70.144531 34.519531 69.628906 35.03125 68.996094 35.03125 Z M 68.996094 35.03125 "/>
<path style=" stroke:none;fill-rule:nonzero;fill:rgb(0%,29.019165%,67.83905%);fill-opacity:1;" d="M 83.890625 25.90625 L 76.445312 25.90625 C 75.8125 25.90625 75.300781 25.390625 75.300781 24.765625 C 75.300781 24.136719 75.8125 23.621094 76.445312 23.621094 L 83.890625 23.621094 C 84.523438 23.621094 85.035156 24.136719 85.035156 24.765625 C 85.035156 25.390625 84.523438 25.90625 83.890625 25.90625 Z M 83.890625 25.90625 "/>
<path style=" stroke:none;fill-rule:nonzero;fill:rgb(0%,29.019165%,67.83905%);fill-opacity:1;" d="M 83.890625 35.03125 L 76.445312 35.03125 C 75.8125 35.03125 75.300781 34.519531 75.300781 33.890625 C 75.300781 33.265625 75.8125 32.75 76.445312 32.75 L 83.890625 32.75 C 84.523438 32.75 85.035156 33.265625 85.035156 33.890625 C 85.035156 34.519531 84.523438 35.03125 83.890625 35.03125 Z M 83.890625 35.03125 "/>
<path style=" stroke:none;fill-rule:nonzero;fill:rgb(0%,29.019165%,67.83905%);fill-opacity:1;" d="M 83.890625 44.160156 L 76.445312 44.160156 C 75.8125 44.160156 75.300781 43.648438 75.300781 43.019531 C 75.300781 42.390625 75.8125 41.878906 76.445312 41.878906 L 83.890625 41.878906 C 84.523438 41.878906 85.035156 42.390625 85.035156 43.019531 C 85.035156 43.648438 84.523438 44.160156 83.890625 44.160156 Z M 83.890625 44.160156 "/>
<path style=" stroke:none;fill-rule:nonzero;fill:rgb(0%,29.019165%,67.83905%);fill-opacity:1;" d="M 83.890625 53.289062 L 76.445312 53.289062 C 75.8125 53.289062 75.300781 52.777344 75.300781 52.148438 C 75.300781 51.519531 75.8125 51.007812 76.445312 51.007812 L 83.890625 51.007812 C 84.523438 51.007812 85.035156 51.519531 85.035156 52.148438 C 85.035156 52.777344 84.523438 53.289062 83.890625 53.289062 Z M 83.890625 53.289062 "/>
<path style=" stroke:none;fill-rule:nonzero;fill:rgb(0%,29.019165%,67.83905%);fill-opacity:1;" d="M 67.277344 53.859375 L 58.113281 53.859375 L 58.113281 45.585938 C 58.113281 44.960938 57.597656 44.445312 56.96875 44.445312 C 56.339844 44.445312 55.824219 44.960938 55.824219 45.585938 L 55.824219 55.285156 C 55.824219 55.914062 56.738281 56.199219 57.371094 56.199219 L 57.425781 56.199219 C 57.425781 56.199219 57.484375 56.199219 57.484375 56.199219 L 67.222656 56.199219 C 67.851562 56.199219 68.367188 55.683594 68.367188 55.058594 C 68.367188 54.429688 67.910156 53.859375 67.277344 53.859375 Z M 67.277344 53.859375 "/>
</g>
</svg>
