<?xml version="1.0" encoding="UTF-8"?>
<svg xmlns="http://www.w3.org/2000/svg" xmlns:xlink="http://www.w3.org/1999/xlink" width="112.5pt" height="74.999997pt" viewBox="0 0 112.5 74.999997" version="1.2">
<defs>
<clipPath id="clip1">
  <path d="M 39 56 L 93.328125 56 L 93.328125 72.429688 L 39 72.429688 Z M 39 56 "/>
</clipPath>
<clipPath id="clip2">
  <path d="M 56 40 L 93.328125 40 L 93.328125 65 L 56 65 Z M 56 40 "/>
</clipPath>
<clipPath id="clip3">
  <path d="M 19.828125 4 L 74 4 L 74 20 L 19.828125 20 Z M 19.828125 4 "/>
</clipPath>
<clipPath id="clip4">
  <path d="M 19.828125 11 L 57 11 L 57 36 L 19.828125 36 Z M 19.828125 11 "/>
</clipPath>
</defs>
<g id="surface1">
<g clip-path="url(#clip1)" clip-rule="nonzero">
<path style=" stroke:none;fill-rule:nonzero;fill:rgb(0%,29.019165%,67.83905%);fill-opacity:1;" d="M 59.386719 72.152344 C 58.039062 72.152344 56.75 71.992188 55.582031 71.660156 L 41.539062 67.621094 C 40.875 67.425781 40.335938 66.992188 40.007812 66.390625 C 39.683594 65.792969 39.613281 65.101562 39.804688 64.449219 C 40.308594 62.746094 41.445312 61.339844 43.003906 60.492188 C 44.5625 59.640625 46.363281 59.453125 48.066406 59.953125 L 55.015625 61.933594 C 55.417969 62.046875 55.648438 62.464844 55.535156 62.863281 C 55.421875 63.261719 55.007812 63.492188 54.605469 63.378906 L 47.648438 61.398438 C 46.324219 61.007812 44.929688 61.15625 43.726562 61.8125 C 42.515625 62.46875 41.636719 63.554688 41.246094 64.875 C 41.167969 65.144531 41.199219 65.425781 41.332031 65.675781 C 41.464844 65.921875 41.691406 66.101562 41.957031 66.179688 L 55.992188 70.214844 C 59.140625 71.101562 63.296875 70.621094 66.839844 68.957031 C 69.019531 67.9375 71.097656 66.59375 73.109375 65.296875 C 74.167969 64.617188 75.261719 63.910156 76.367188 63.253906 C 81.304688 60.3125 86.652344 58.191406 92.265625 56.945312 C 92.671875 56.855469 93.070312 57.113281 93.164062 57.519531 C 93.253906 57.921875 92.996094 58.324219 92.589844 58.414062 C 87.136719 59.625 81.9375 61.6875 77.136719 64.542969 C 76.054688 65.1875 74.972656 65.886719 73.925781 66.5625 C 71.871094 67.886719 69.75 69.25 67.480469 70.316406 C 64.921875 71.519531 62.046875 72.152344 59.386719 72.152344 "/>
</g>
<g clip-path="url(#clip2)" clip-rule="nonzero">
<path style=" stroke:none;fill-rule:nonzero;fill:rgb(0%,29.019165%,67.83905%);fill-opacity:1;" d="M 60.410156 64.398438 C 58.921875 64.398438 57.480469 63.585938 56.75 62.179688 C 56.238281 61.207031 56.140625 60.089844 56.472656 59.042969 C 56.804688 57.992188 57.523438 57.136719 58.5 56.628906 L 61.335938 55.152344 C 63.875 53.832031 66.074219 52.039062 67.882812 49.824219 L 68.203125 49.433594 C 69.402344 47.960938 70.636719 46.4375 72.121094 45.125 C 76.210938 41.503906 84.0625 38.589844 92.722656 42.285156 C 93.105469 42.449219 93.285156 42.886719 93.121094 43.269531 C 92.957031 43.652344 92.511719 43.828125 92.132812 43.664062 C 84.117188 40.246094 76.882812 42.921875 73.121094 46.25 C 71.730469 47.484375 70.53125 48.953125 69.371094 50.382812 L 69.050781 50.773438 C 67.113281 53.148438 64.75 55.070312 62.03125 56.484375 L 59.195312 57.960938 C 58.574219 58.285156 58.117188 58.828125 57.910156 59.492188 C 57.699219 60.160156 57.761719 60.867188 58.082031 61.484375 C 58.75 62.765625 60.332031 63.265625 61.613281 62.597656 L 64.839844 60.921875 C 66.710938 59.945312 68.484375 58.773438 70.105469 57.429688 L 75.402344 53.054688 C 75.722656 52.789062 76.195312 52.835938 76.460938 53.15625 C 76.726562 53.476562 76.679688 53.945312 76.359375 54.210938 L 71.066406 58.585938 C 69.359375 59.996094 67.496094 61.230469 65.535156 62.253906 L 62.308594 63.929688 C 61.703125 64.246094 61.050781 64.398438 60.410156 64.398438 "/>
</g>
<g clip-path="url(#clip3)" clip-rule="nonzero">
<path style=" stroke:none;fill-rule:nonzero;fill:rgb(0%,29.019165%,67.83905%);fill-opacity:1;" d="M 20.652344 19.367188 C 20.308594 19.367188 19.996094 19.128906 19.917969 18.777344 C 19.828125 18.375 20.082031 17.972656 20.488281 17.882812 C 25.941406 16.671875 31.144531 14.609375 35.941406 11.753906 C 37.027344 11.105469 38.109375 10.410156 39.160156 9.734375 C 41.207031 8.410156 43.328125 7.042969 45.601562 5.976562 C 49.453125 4.167969 54.011719 3.652344 57.5 4.636719 L 71.542969 8.675781 C 72.203125 8.867188 72.746094 9.304688 73.070312 9.902344 C 73.398438 10.503906 73.46875 11.191406 73.277344 11.847656 C 72.773438 13.550781 71.636719 14.957031 70.078125 15.804688 C 68.515625 16.652344 66.714844 16.84375 65.011719 16.34375 L 58.0625 14.363281 C 57.664062 14.25 57.429688 13.832031 57.546875 13.433594 C 57.660156 13.035156 58.070312 12.800781 58.476562 12.917969 L 65.429688 14.898438 C 68.164062 15.703125 71.03125 14.144531 71.835938 11.421875 C 71.996094 10.867188 71.675781 10.28125 71.121094 10.113281 L 57.089844 6.082031 C 53.9375 5.195312 49.78125 5.675781 46.242188 7.339844 C 44.0625 8.359375 41.984375 9.699219 39.976562 10.996094 C 38.914062 11.679688 37.820312 12.386719 36.714844 13.046875 C 31.777344 15.980469 26.425781 18.101562 20.816406 19.351562 C 20.761719 19.359375 20.707031 19.367188 20.652344 19.367188 "/>
</g>
<g clip-path="url(#clip4)" clip-rule="nonzero">
<path style=" stroke:none;fill-rule:nonzero;fill:rgb(0%,29.019165%,67.83905%);fill-opacity:1;" d="M 28.496094 35.722656 C 25.941406 35.722656 23.191406 35.222656 20.359375 34.011719 C 19.976562 33.847656 19.796875 33.40625 19.960938 33.027344 C 20.125 32.644531 20.566406 32.46875 20.949219 32.628906 C 28.964844 36.050781 36.199219 33.375 39.960938 30.046875 C 41.347656 28.8125 42.546875 27.34375 43.703125 25.917969 L 44.027344 25.523438 C 45.96875 23.144531 48.332031 21.226562 51.050781 19.808594 L 53.882812 18.335938 C 55.164062 17.667969 55.664062 16.085938 54.996094 14.808594 C 54.675781 14.1875 54.128906 13.734375 53.464844 13.523438 C 52.796875 13.3125 52.085938 13.378906 51.46875 13.699219 L 48.242188 15.375 C 46.371094 16.351562 44.597656 17.523438 42.976562 18.867188 L 37.679688 23.242188 C 37.359375 23.507812 36.882812 23.460938 36.621094 23.140625 C 36.355469 22.820312 36.398438 22.347656 36.71875 22.082031 L 42.015625 17.707031 C 43.722656 16.300781 45.582031 15.066406 47.546875 14.042969 L 50.773438 12.363281 C 51.75 11.855469 52.863281 11.757812 53.914062 12.089844 C 54.964844 12.417969 55.824219 13.140625 56.332031 14.113281 C 57.382812 16.128906 56.597656 18.621094 54.578125 19.667969 L 51.746094 21.140625 C 49.207031 22.464844 47.003906 24.253906 45.195312 26.472656 L 44.871094 26.867188 C 43.679688 28.339844 42.441406 29.855469 40.957031 31.167969 C 38.207031 33.605469 33.753906 35.722656 28.496094 35.722656 "/>
</g>
<path style=" stroke:none;fill-rule:nonzero;fill:rgb(0%,29.019165%,67.83905%);fill-opacity:1;" d="M 50.238281 30.398438 C 48.125 30.398438 46.070312 31.585938 45.214844 33.316406 C 44.113281 35.539062 44.9375 38.179688 46.074219 39.910156 C 47.335938 41.828125 49.222656 43.339844 51.042969 44.804688 L 51.441406 45.125 C 51.648438 45.289062 51.855469 45.457031 52.070312 45.625 C 53.625 46.863281 55.347656 48.238281 56.539062 49.921875 C 57.734375 48.234375 59.457031 46.863281 61.011719 45.625 C 61.222656 45.457031 61.433594 45.289062 61.636719 45.125 L 62.039062 44.800781 C 63.863281 43.339844 65.746094 41.828125 67.003906 39.910156 C 68.140625 38.179688 68.964844 35.539062 67.863281 33.316406 C 66.996094 31.554688 64.882812 30.355469 62.726562 30.398438 C 60.386719 30.449219 58.199219 32.542969 57.105469 33.789062 C 56.820312 34.113281 56.261719 34.113281 55.976562 33.789062 C 54.878906 32.542969 52.691406 30.449219 50.355469 30.398438 C 50.316406 30.398438 50.277344 30.398438 50.238281 30.398438 Z M 56.539062 52.113281 C 56.257812 52.113281 56 51.957031 55.871094 51.707031 C 54.882812 49.789062 52.976562 48.269531 51.128906 46.800781 C 50.917969 46.628906 50.707031 46.460938 50.5 46.296875 L 50.101562 45.976562 C 48.1875 44.4375 46.207031 42.851562 44.820312 40.734375 C 43.453125 38.65625 42.484375 35.441406 43.863281 32.648438 C 45.003906 30.347656 47.636719 28.839844 50.386719 28.898438 C 52.914062 28.949219 55.167969 30.773438 56.539062 32.1875 C 57.914062 30.773438 60.167969 28.949219 62.695312 28.898438 C 62.746094 28.894531 62.792969 28.894531 62.847656 28.894531 C 65.550781 28.894531 68.097656 30.390625 69.214844 32.648438 C 70.59375 35.441406 69.628906 38.65625 68.261719 40.734375 C 66.875 42.851562 64.894531 44.4375 62.984375 45.972656 L 62.582031 46.296875 C 62.375 46.460938 62.164062 46.628906 61.949219 46.800781 C 60.105469 48.269531 58.199219 49.789062 57.210938 51.707031 C 57.082031 51.957031 56.824219 52.113281 56.539062 52.113281 "/>
<path style=" stroke:none;fill-rule:nonzero;fill:rgb(100%,8.628845%,8.628845%);fill-opacity:1;" d="M 56.539062 46.484375 C 55.550781 45.511719 54.480469 44.660156 53.472656 43.859375 L 52.453125 43.042969 C 50.6875 41.628906 49.027344 40.292969 47.964844 38.675781 C 47.144531 37.425781 46.605469 35.597656 47.238281 34.3125 C 47.714844 33.351562 48.976562 32.65625 50.238281 32.65625 L 50.308594 32.65625 C 51.351562 32.675781 52.875 33.683594 54.277344 35.28125 L 56.539062 37.847656 L 58.800781 35.28125 C 60.207031 33.683594 61.726562 32.675781 62.773438 32.65625 L 62.839844 32.65625 C 64.101562 32.65625 65.367188 33.351562 65.839844 34.3125 C 66.476562 35.597656 65.933594 37.425781 65.117188 38.675781 C 64.054688 40.292969 62.390625 41.628906 60.628906 43.042969 L 59.605469 43.859375 C 58.601562 44.660156 57.53125 45.511719 56.539062 46.484375 "/>
</g>
</svg>
