<?xml version="1.0" encoding="UTF-8"?>
<svg xmlns="http://www.w3.org/2000/svg" xmlns:xlink="http://www.w3.org/1999/xlink" width="112.5pt" height="74.999997pt" viewBox="0 0 112.5 74.999997" version="1.2">
<defs>
<clipPath id="clip1">
  <path d="M 33 2.882812 L 63 2.882812 L 63 14 L 33 14 Z M 33 2.882812 "/>
</clipPath>
<clipPath id="clip2">
  <path d="M 26.335938 20 L 86.335938 20 L 86.335938 51 L 26.335938 51 Z M 26.335938 20 "/>
</clipPath>
<clipPath id="clip3">
  <path d="M 40 35 L 80 35 L 80 72.632812 L 40 72.632812 Z M 40 35 "/>
</clipPath>
</defs>
<g id="surface1">
<g clip-path="url(#clip1)" clip-rule="nonzero">
<path style=" stroke:none;fill-rule:nonzero;fill:rgb(0%,29.019165%,67.83905%);fill-opacity:1;" d="M 62.589844 13.753906 L 39.425781 3.207031 C 38.9375 2.992188 38.394531 2.882812 37.902344 2.882812 C 36.488281 2.882812 35.078125 3.75 34.476562 5.164062 L 33.28125 7.773438 C 33.664062 7.773438 33.988281 7.828125 34.371094 7.882812 Z M 62.589844 13.753906 "/>
</g>
<path style=" stroke:none;fill-rule:nonzero;fill:rgb(0%,29.019165%,67.83905%);fill-opacity:1;" d="M 33.171875 9.949219 C 31.433594 9.949219 29.855469 11.199219 29.53125 12.941406 L 28.390625 18.375 C 28.933594 18.210938 29.53125 18.105469 30.183594 18.105469 L 30.671875 18.105469 L 31.652344 13.429688 C 31.8125 12.667969 32.464844 12.125 33.171875 12.125 C 33.28125 12.125 33.390625 12.125 33.5 12.179688 L 62.152344 18.105469 L 72.863281 18.105469 L 33.933594 10.003906 C 33.71875 9.949219 33.445312 9.949219 33.171875 9.949219 Z M 33.171875 9.949219 "/>
<path style=" stroke:none;fill-rule:nonzero;fill:rgb(0%,29.019165%,67.83905%);fill-opacity:1;" d="M 52.367188 46.210938 L 52.476562 46.375 L 56.335938 46.375 C 54.976562 46.375 53.671875 46.101562 52.476562 45.667969 Z M 52.367188 46.210938 "/>
<g clip-path="url(#clip2)" clip-rule="nonzero">
<path style=" stroke:none;fill-rule:nonzero;fill:rgb(0%,29.019165%,67.83905%);fill-opacity:1;" d="M 86.238281 46.917969 L 86.238281 24.085938 C 86.238281 21.964844 84.554688 20.277344 82.488281 20.277344 L 30.183594 20.277344 C 28.117188 20.277344 26.429688 21.964844 26.429688 24.085938 L 26.429688 46.917969 C 26.429688 49.039062 28.117188 50.722656 30.183594 50.722656 L 39.15625 50.722656 L 38.449219 47.679688 C 38.285156 46.972656 38.339844 46.210938 38.664062 45.558594 L 38.773438 45.285156 L 38.664062 45.285156 C 38.175781 45.285156 37.6875 44.960938 37.578125 44.472656 C 36.871094 41.261719 33.171875 41.914062 33.011719 41.96875 C 32.683594 42.023438 32.359375 41.914062 32.140625 41.753906 C 31.867188 41.535156 31.761719 41.210938 31.761719 40.9375 L 31.761719 30.171875 C 31.761719 29.847656 31.921875 29.519531 32.140625 29.359375 C 32.414062 29.140625 32.738281 29.085938 33.011719 29.140625 C 33.390625 29.195312 36.871094 29.738281 37.578125 26.640625 C 37.6875 26.148438 38.121094 25.769531 38.664062 25.769531 L 42.742188 25.769531 C 43.339844 25.769531 43.832031 26.257812 43.832031 26.855469 C 43.832031 27.453125 43.339844 27.945312 42.742188 27.945312 L 39.589844 27.945312 C 38.554688 30.664062 36 31.371094 34.042969 31.371094 L 34.042969 39.742188 C 36 39.742188 38.554688 40.449219 39.589844 43.167969 L 39.914062 43.167969 L 43.070312 36.589844 C 43.613281 35.445312 44.539062 34.578125 45.570312 34.03125 C 45.679688 33.980469 45.734375 33.925781 45.84375 33.925781 C 45.734375 33.980469 45.679688 33.980469 45.570312 34.03125 C 46.332031 28.707031 50.84375 24.628906 56.335938 24.628906 C 62.316406 24.628906 67.210938 29.519531 67.210938 35.5 C 67.210938 41.480469 62.316406 46.375 56.335938 46.375 L 71.886719 46.375 C 73.410156 46.375 74.769531 47.460938 75.09375 48.984375 L 75.476562 50.722656 L 82.542969 50.722656 C 84.554688 50.722656 86.238281 49.039062 86.238281 46.917969 Z M 80.804688 40.828125 C 80.804688 41.15625 80.640625 41.480469 80.421875 41.644531 C 80.152344 41.863281 79.824219 41.914062 79.550781 41.863281 C 79.171875 41.808594 75.691406 41.261719 74.984375 44.363281 C 74.875 44.851562 74.441406 45.179688 73.898438 45.179688 L 69.929688 45.179688 C 69.332031 45.179688 68.839844 44.6875 68.839844 44.089844 C 68.839844 43.492188 69.332031 43.003906 69.929688 43.003906 L 73.082031 43.003906 C 74.117188 40.285156 76.671875 39.578125 78.628906 39.578125 L 78.628906 31.316406 C 76.671875 31.316406 74.117188 30.554688 73.082031 27.890625 L 69.929688 27.890625 C 69.332031 27.890625 68.839844 27.402344 68.839844 26.800781 C 68.839844 26.203125 69.332031 25.714844 69.929688 25.714844 L 73.898438 25.714844 C 74.386719 25.714844 74.875 26.042969 74.984375 26.585938 C 75.691406 29.738281 79.390625 29.140625 79.550781 29.085938 C 79.878906 29.03125 80.203125 29.085938 80.421875 29.304688 C 80.695312 29.519531 80.804688 29.792969 80.804688 30.117188 Z M 80.804688 40.828125 "/>
</g>
<g clip-path="url(#clip3)" clip-rule="nonzero">
<path style=" stroke:none;fill-rule:nonzero;fill:rgb(0%,29.019165%,67.83905%);fill-opacity:1;" d="M 77.648438 71.871094 C 77.921875 72.414062 78.574219 72.632812 79.117188 72.414062 C 79.660156 72.144531 79.878906 71.492188 79.660156 70.945312 L 75.476562 62.085938 L 76.289062 61.757812 C 76.941406 61.488281 77.269531 60.726562 76.996094 60.128906 L 74.277344 54.257812 C 74.167969 54.039062 74.007812 53.875 73.84375 53.714844 L 73.191406 50.722656 L 72.917969 49.417969 C 72.808594 48.929688 72.375 48.546875 71.832031 48.546875 L 51.386719 48.546875 L 50.027344 46.699219 L 51.496094 39.632812 C 51.824219 37.894531 50.84375 36.207031 49.214844 35.609375 C 47.582031 35.066406 45.789062 35.828125 45.027344 37.402344 L 40.675781 46.484375 C 40.566406 46.699219 40.566406 46.972656 40.566406 47.1875 L 41.382812 50.722656 L 42.632812 56.160156 C 42.6875 56.484375 42.90625 56.703125 43.179688 56.867188 L 53.128906 62.195312 C 53.019531 62.464844 53.019531 62.792969 53.128906 63.117188 L 55.738281 68.933594 C 55.957031 69.425781 56.445312 69.75 56.988281 69.75 C 57.152344 69.75 57.367188 69.695312 57.53125 69.640625 L 58.566406 69.207031 L 59.597656 71.816406 C 59.816406 72.359375 60.46875 72.632812 61.011719 72.414062 C 61.554688 72.195312 61.828125 71.542969 61.609375 71 L 60.523438 68.335938 L 73.300781 62.902344 C 73.410156 62.902344 77.648438 71.816406 77.648438 71.871094 Z M 55.304688 60.890625 L 44.644531 55.179688 L 43.613281 50.722656 L 42.796875 47.082031 L 46.984375 38.382812 C 47.253906 37.839844 47.910156 37.511719 48.507812 37.730469 C 49.105469 37.949219 49.484375 38.601562 49.320312 39.253906 L 47.800781 46.753906 C 47.746094 47.082031 47.800781 47.351562 47.960938 47.625 L 49.921875 50.289062 C 50.136719 50.558594 50.464844 50.722656 50.789062 50.722656 L 70.90625 50.722656 L 71.558594 53.929688 Z M 55.304688 60.890625 "/>
</g>
<path style=" stroke:none;fill-rule:nonzero;fill:rgb(0%,29.019165%,67.83905%);fill-opacity:1;" d="M 56.335938 28.433594 C 55.738281 28.433594 55.25 28.921875 55.25 29.519531 L 55.25 30.335938 C 54.488281 30.554688 53.78125 30.933594 53.292969 31.75 C 52.691406 32.726562 52.691406 33.980469 53.292969 35.011719 C 53.945312 36.207031 55.195312 36.589844 56.117188 36.859375 C 57.152344 37.1875 57.53125 37.347656 57.695312 37.839844 C 57.859375 38.328125 57.421875 38.652344 57.152344 38.761719 C 56.714844 38.980469 56.171875 38.925781 55.683594 38.707031 C 55.195312 38.492188 54.8125 38.054688 54.648438 37.621094 C 54.488281 37.078125 53.890625 36.75 53.34375 36.914062 C 53.726562 37.839844 53.835938 38.871094 53.671875 39.957031 C 53.996094 40.285156 54.378906 40.558594 54.8125 40.71875 C 54.976562 40.773438 55.085938 40.828125 55.25 40.882812 L 55.25 41.480469 C 55.25 42.078125 55.738281 42.566406 56.335938 42.566406 C 56.933594 42.566406 57.421875 42.078125 57.421875 41.480469 L 57.421875 40.9375 C 57.640625 40.882812 57.859375 40.828125 58.074219 40.71875 C 59.488281 40.066406 60.195312 38.601562 59.816406 37.1875 C 59.328125 35.554688 57.859375 35.066406 56.769531 34.792969 C 55.957031 34.523438 55.410156 34.359375 55.195312 33.980469 C 55.03125 33.652344 54.976562 33.21875 55.195312 32.945312 C 55.519531 32.457031 56.28125 32.347656 56.878906 32.457031 C 57.367188 32.566406 57.914062 33.054688 58.074219 33.597656 C 58.238281 34.195312 58.835938 34.523438 59.378906 34.359375 C 59.980469 34.195312 60.304688 33.597656 60.140625 33.054688 C 59.816406 31.804688 58.726562 30.714844 57.476562 30.390625 L 57.476562 29.519531 C 57.421875 28.921875 56.933594 28.433594 56.335938 28.433594 Z M 56.335938 28.433594 "/>
</g>
</svg>
