<?xml version="1.0" encoding="UTF-8"?>
<svg xmlns="http://www.w3.org/2000/svg" xmlns:xlink="http://www.w3.org/1999/xlink" width="112.5pt" height="74.999997pt" viewBox="0 0 112.5 74.999997" version="1.2">
<defs>
<clipPath id="clip1">
  <path d="M 13.816406 3.53125 L 90 3.53125 L 90 59 L 13.816406 59 Z M 13.816406 3.53125 "/>
</clipPath>
<clipPath id="clip2">
  <path d="M 63 31 L 98.566406 31 L 98.566406 65.78125 L 63 65.78125 Z M 63 31 "/>
</clipPath>
</defs>
<g id="surface1">
<g clip-path="url(#clip1)" clip-rule="nonzero">
<path style=" stroke:none;fill-rule:nonzero;fill:rgb(0%,29.019165%,67.83905%);fill-opacity:1;" d="M 63.664062 54.746094 L 20.453125 54.746094 C 19.039062 54.746094 17.886719 53.59375 17.886719 52.175781 L 17.886719 20.757812 L 85.78125 20.757812 L 85.78125 32.136719 C 85.78125 33.261719 86.691406 34.175781 87.820312 34.175781 C 88.941406 34.175781 89.851562 33.261719 89.851562 32.136719 L 89.851562 5.75 C 89.851562 4.621094 88.941406 3.707031 87.820312 3.707031 L 20.453125 3.707031 C 16.789062 3.707031 13.8125 6.691406 13.8125 10.363281 L 13.8125 52.171875 C 13.8125 55.84375 16.789062 58.828125 20.453125 58.828125 L 63.664062 58.828125 C 64.789062 58.828125 65.703125 57.917969 65.703125 56.789062 C 65.703125 55.660156 64.789062 54.746094 63.664062 54.746094 Z M 20.453125 7.789062 L 85.78125 7.789062 L 85.78125 18.714844 L 17.886719 18.714844 L 17.886719 10.363281 C 17.886719 8.945312 19.039062 7.789062 20.453125 7.789062 Z M 20.453125 7.789062 "/>
</g>
<g clip-path="url(#clip2)" clip-rule="nonzero">
<path style=" stroke:none;fill-rule:nonzero;fill:rgb(0%,29.019165%,67.83905%);fill-opacity:1;" d="M 97.828125 61.976562 L 85.21875 49.332031 C 86.304688 47.53125 86.941406 45.433594 86.941406 43.183594 C 86.941406 36.613281 81.617188 31.273438 75.066406 31.273438 C 68.519531 31.273438 63.191406 36.613281 63.191406 43.183594 C 63.191406 49.75 68.519531 55.089844 75.066406 55.089844 C 77.898438 55.089844 80.5 54.089844 82.542969 52.421875 L 94.949219 64.863281 C 95.347656 65.261719 95.867188 65.460938 96.390625 65.460938 C 96.910156 65.460938 97.429688 65.261719 97.828125 64.863281 C 98.625 64.066406 98.625 62.773438 97.828125 61.976562 Z M 67.261719 43.183594 C 67.261719 38.867188 70.761719 35.355469 75.066406 35.355469 C 79.367188 35.355469 82.867188 38.867188 82.867188 43.183594 C 82.867188 47.496094 79.367188 51.007812 75.066406 51.007812 C 70.765625 51.007812 67.261719 47.496094 67.261719 43.183594 Z M 67.261719 43.183594 "/>
</g>
<path style=" stroke:none;fill-rule:nonzero;fill:rgb(0%,29.019165%,67.83905%);fill-opacity:1;" d="M 79.140625 16.242188 C 80.8125 16.242188 82.167969 14.878906 82.167969 13.203125 C 82.167969 11.523438 80.808594 10.160156 79.140625 10.160156 C 77.46875 10.160156 76.109375 11.523438 76.109375 13.203125 C 76.109375 14.878906 77.46875 16.242188 79.140625 16.242188 Z M 79.140625 12.203125 C 79.6875 12.203125 80.132812 12.652344 80.132812 13.203125 C 80.132812 13.753906 79.6875 14.199219 79.140625 14.199219 C 78.589844 14.199219 78.144531 13.753906 78.144531 13.203125 C 78.144531 12.652344 78.59375 12.203125 79.140625 12.203125 Z M 79.140625 12.203125 "/>
<path style=" stroke:none;fill-rule:nonzero;fill:rgb(0%,29.019165%,67.83905%);fill-opacity:1;" d="M 72.5 16.242188 C 74.175781 16.242188 75.535156 14.878906 75.535156 13.203125 C 75.535156 11.523438 74.171875 10.160156 72.5 10.160156 C 70.832031 10.160156 69.46875 11.523438 69.46875 13.203125 C 69.46875 14.878906 70.832031 16.242188 72.5 16.242188 Z M 72.5 12.203125 C 73.050781 12.203125 73.496094 12.652344 73.496094 13.203125 C 73.496094 13.753906 73.050781 14.199219 72.5 14.199219 C 71.953125 14.199219 71.507812 13.753906 71.507812 13.203125 C 71.507812 12.652344 71.953125 12.203125 72.5 12.203125 Z M 72.5 12.203125 "/>
<path style=" stroke:none;fill-rule:nonzero;fill:rgb(0%,29.019165%,67.83905%);fill-opacity:1;" d="M 65.863281 16.242188 C 67.535156 16.242188 68.894531 14.878906 68.894531 13.203125 C 68.894531 11.523438 67.535156 10.160156 65.863281 10.160156 C 64.191406 10.160156 62.832031 11.523438 62.832031 13.203125 C 62.832031 14.878906 64.195312 16.242188 65.863281 16.242188 Z M 65.863281 12.203125 C 66.414062 12.203125 66.859375 12.652344 66.859375 13.203125 C 66.859375 13.753906 66.414062 14.199219 65.863281 14.199219 C 65.316406 14.199219 64.867188 13.753906 64.867188 13.203125 C 64.867188 12.652344 65.316406 12.203125 65.863281 12.203125 Z M 65.863281 12.203125 "/>
</g>
</svg>
