<?xml version="1.0" encoding="UTF-8"?>
<svg xmlns="http://www.w3.org/2000/svg" xmlns:xlink="http://www.w3.org/1999/xlink" width="112.5pt" height="74.999997pt" viewBox="0 0 112.5 74.999997" version="1.2">
<defs>
<clipPath id="clip1">
  <path d="M 32 1.917969 L 80.558594 1.917969 L 80.558594 72.417969 L 32 72.417969 Z M 32 1.917969 "/>
</clipPath>
</defs>
<g id="surface1">
<g clip-path="url(#clip1)" clip-rule="nonzero">
<path style=" stroke:none;fill-rule:nonzero;fill:rgb(0%,29.019165%,67.83905%);fill-opacity:1;" d="M 76.84375 31.542969 C 75.34375 31.144531 73.878906 31.34375 72.769531 31.882812 C 71.925781 30.542969 70.378906 29.582031 68.65625 29.480469 L 67.742188 29.417969 C 67.71875 29.417969 67.617188 29.414062 67.59375 29.414062 C 66.367188 29.414062 65.371094 29.921875 64.613281 30.539062 C 63.542969 29.265625 61.820312 28.480469 60.292969 28.480469 C 60.214844 28.480469 60.136719 28.484375 60.050781 28.488281 L 59.359375 28.527344 C 58.867188 28.554688 58.359375 28.667969 57.863281 28.851562 L 57.859375 28.605469 C 62.835938 26.308594 66.035156 21.390625 66.035156 15.941406 C 66.035156 8.238281 59.695312 1.96875 51.90625 1.96875 C 44.109375 1.96875 37.765625 8.238281 37.765625 15.941406 C 37.765625 21.515625 41.097656 26.527344 46.257812 28.761719 L 46.050781 41.15625 L 43.902344 36.820312 C 43.875 36.765625 43.84375 36.714844 43.8125 36.664062 C 42.355469 34.296875 39.703125 32.824219 36.894531 32.824219 C 35.574219 32.824219 34.257812 33.148438 33.089844 33.769531 C 32.199219 34.238281 31.8125 35.296875 32.1875 36.222656 L 39.050781 53.09375 C 40.027344 57.113281 42.226562 60.664062 45.425781 63.371094 C 46.957031 64.65625 47.800781 66.367188 47.800781 68.175781 C 47.800781 70.488281 49.703125 72.367188 52.039062 72.367188 L 70.171875 72.367188 C 72.507812 72.367188 74.410156 70.488281 74.410156 68.175781 L 74.410156 67.8125 C 74.410156 66.5625 74.898438 65.371094 75.753906 64.539062 C 78.441406 61.910156 79.820312 58.605469 80.09375 54.058594 L 80.460938 36.890625 C 80.570312 34.847656 79.046875 32.128906 76.84375 31.542969 Z M 40.929688 15.941406 C 40.929688 9.960938 45.855469 5.097656 51.90625 5.097656 C 57.953125 5.097656 62.871094 9.960938 62.871094 15.941406 C 62.871094 19.691406 60.917969 23.121094 57.777344 25.09375 L 57.589844 17.03125 C 57.589844 16.992188 57.589844 16.949219 57.585938 16.910156 C 57.339844 13.996094 55.0625 11.625 52.511719 11.625 C 52.4375 11.625 52.367188 11.628906 52.332031 11.628906 L 51.304688 11.667969 C 48.5625 11.820312 46.421875 14.789062 46.453125 17.171875 L 46.316406 25.28125 C 43.003906 23.339844 40.929688 19.816406 40.929688 15.941406 Z M 76.140625 53.902344 C 75.929688 57.398438 74.953125 59.824219 72.976562 61.753906 C 71.375 63.316406 70.453125 65.523438 70.453125 67.8125 L 70.453125 68.175781 C 70.453125 68.332031 70.328125 68.457031 70.171875 68.457031 L 52.039062 68.457031 C 51.882812 68.457031 51.753906 68.332031 51.753906 68.175781 C 51.753906 65.242188 50.382812 62.40625 47.992188 60.394531 C 45.40625 58.203125 43.632812 55.324219 42.867188 52.0625 C 42.847656 51.964844 42.816406 51.867188 42.777344 51.773438 L 36.664062 36.742188 C 38.15625 36.660156 39.585938 37.375 40.390625 38.628906 L 44.597656 47.109375 C 45.230469 48.386719 46.816406 49.046875 48.183594 48.609375 C 49.378906 48.222656 49.964844 47.226562 49.929688 45.6875 L 50.410156 17.203125 C 50.410156 17.175781 50.410156 17.148438 50.410156 17.121094 C 50.394531 16.589844 51.144531 15.636719 51.484375 15.574219 L 52.511719 15.539062 C 52.746094 15.539062 53.519531 16.035156 53.636719 17.1875 L 54.042969 34.640625 C 54.0625 35.617188 54.8125 36.429688 55.796875 36.539062 C 56.78125 36.648438 57.695312 36.023438 57.9375 35.074219 L 58.269531 33.773438 C 58.304688 33.628906 58.324219 33.480469 58.328125 33.332031 C 58.332031 33.070312 58.96875 32.464844 59.582031 32.429688 L 60.292969 32.394531 C 60.933594 32.394531 61.667969 32.988281 61.695312 33.253906 C 61.707031 33.359375 61.726562 33.46875 61.753906 33.574219 L 62.195312 35.167969 C 62.367188 35.792969 62.839844 36.292969 63.457031 36.503906 C 63.667969 36.574219 63.917969 36.613281 64.136719 36.613281 C 64.820312 36.613281 65.992188 36.308594 66.445312 34.347656 C 66.765625 33.84375 67.285156 33.328125 67.53125 33.324219 L 68.398438 33.382812 C 68.945312 33.417969 69.476562 33.832031 69.484375 34.160156 L 69.566406 35.886719 C 69.609375 36.792969 70.273438 37.550781 71.175781 37.71875 C 72.078125 37.886719 72.976562 37.421875 73.347656 36.59375 C 73.355469 36.578125 74.011719 35.234375 75.214844 35.234375 C 75.402344 35.234375 75.605469 35.265625 75.765625 35.300781 C 76.078125 35.460938 76.53125 36.300781 76.511719 36.746094 Z M 76.140625 53.902344 "/>
</g>
</g>
</svg>
