<?xml version="1.0" encoding="UTF-8"?>
<svg xmlns="http://www.w3.org/2000/svg" xmlns:xlink="http://www.w3.org/1999/xlink" width="112.5pt" height="74.999997pt" viewBox="0 0 112.5 74.999997" version="1.2">
<defs>
<clipPath id="clip1">
  <path d="M 18.152344 1.332031 L 93.152344 1.332031 L 93.152344 73.332031 L 18.152344 73.332031 Z M 18.152344 1.332031 "/>
</clipPath>
</defs>
<g id="surface1">
<g clip-path="url(#clip1)" clip-rule="nonzero">
<path style=" stroke:none;fill-rule:nonzero;fill:rgb(0%,29.019165%,67.83905%);fill-opacity:1;" d="M 18.179688 1.332031 L 18.179688 52.757812 C 18.179688 58.429688 22.765625 63.042969 28.398438 63.042969 L 47.433594 63.042969 C 46.5625 60.882812 45.960938 58.585938 45.664062 56.1875 L 28.398438 56.1875 C 26.523438 56.1875 24.992188 54.648438 24.992188 52.757812 L 24.992188 8.1875 L 65.871094 8.1875 L 65.871094 26.226562 C 68.050781 25.660156 70.328125 25.332031 72.683594 25.332031 L 72.683594 1.332031 Z M 31.804688 15.042969 L 31.804688 25.332031 L 59.058594 25.332031 L 59.058594 15.042969 Z M 79.5 15.042969 L 79.5 26.226562 C 81.917969 26.855469 84.203125 27.796875 86.3125 29.027344 L 86.3125 15.042969 Z M 31.804688 32.1875 L 31.804688 39.042969 L 49.105469 39.042969 C 50.59375 36.460938 52.488281 34.148438 54.699219 32.1875 Z M 72.683594 32.1875 C 61.4375 32.1875 52.246094 41.4375 52.246094 52.757812 C 52.246094 64.078125 61.4375 73.332031 72.683594 73.332031 C 83.933594 73.332031 93.125 64.078125 93.125 52.757812 C 93.125 41.4375 83.933594 32.1875 72.683594 32.1875 Z M 72.683594 39.042969 C 75.21875 39.042969 77.554688 39.777344 79.578125 40.972656 L 60.976562 59.695312 C 59.789062 57.660156 59.058594 55.308594 59.058594 52.757812 C 59.058594 45.144531 65.121094 39.042969 72.683594 39.042969 Z M 84.394531 45.820312 C 85.582031 47.859375 86.3125 50.210938 86.3125 52.757812 C 86.3125 60.375 80.25 66.472656 72.683594 66.472656 C 70.152344 66.472656 67.816406 65.742188 65.792969 64.542969 Z M 31.804688 45.902344 L 31.804688 52.757812 L 45.433594 52.757812 C 45.433594 50.386719 45.761719 48.097656 46.324219 45.902344 Z M 31.804688 45.902344 "/>
</g>
</g>
</svg>
